<svg viewBox="0 0 52.05 49.08" xmlns="http://www.w3.org/2000/svg"><g fill="#d2d2d2"><path d="m14.3 12.77a.75.75 0 0 1 -.6.71 17.62 17.62 0 0 1 -2.9.2 6.68 6.68 0 0 1 -3.9-.8c-.2.4-.3.8-.4 1l.7 3.5a2.13 2.13 0 0 1 -.3 1.62 1.32 1.32 0 0 1 -1 .4 1.42 1.42 0 0 1 -1.5-1.2l-1.1-4a3.1 3.1 0 0 0 -.12-.76c-.2.15-.19.51-.19.74v3.32a1.63 1.63 0 0 0 .1.7 1.56 1.56 0 0 1 1 .15.6.6 0 0 1 .15.88.91.91 0 0 1 -.52.16 2.2 2.2 0 0 1 -1.83-.45 2.32 2.32 0 0 1 -.41-1.62v-3.64a1.19 1.19 0 0 1 0-.33 1.33 1.33 0 0 1 .26-.35l.9-1.24a.48.48 0 0 0 .12-.22.53.53 0 0 0 0-.25 10.8 10.8 0 0 1 -.5-4.19 1.11 1.11 0 0 1 .14-.54.66.66 0 0 1 1.07 0 1.29 1.29 0 0 1 .09.89 8.25 8.25 0 0 0 0 2.22 5.37 5.37 0 0 0 .3 1.13c.11.28.44.62.29.92a1.51 1.51 0 0 0 -.15.28 2.44 2.44 0 0 0 .1.88 7.88 7.88 0 0 0 .2 1.12l1.1 4a.22.22 0 0 0 .2.2h.1l.1-.1a1 1 0 0 0 .1-.4v-.1l-.7-3.7v-.19c.7-1.5 1.6-4.3 1.3-5.41-.1-.09-.1-.29.1-.5s.3-.2.4-.29c.3-.21.6 0 .8.4a7.88 7.88 0 0 1 -.4 3.9c1 .8 4.3.8 6.1.5.4-.13.6.07.8.46z"/><path d="m19.6 2.27a.71.71 0 0 1 -.8.71l-4.1-.5-10.6.09a3.27 3.27 0 0 0 -1.5 1 5.73 5.73 0 0 0 -.7 4.3 9.28 9.28 0 0 1 -.6 5.2c-.1.1-.2.3-.3.41a.61.61 0 0 1 -.8 0c-.5-.41.1-1.41.2-1.91a8.68 8.68 0 0 0 .1-3.2c-.4-2.9.6-6.8 4.1-6.9l10.2-.3 4.1.5a.57.57 0 0 1 .7.6z"/><path d="m23.5 3-.1-.1c0 .1.1.2.2.3z"/><path d="m26.8 8.58c-.5.9-2.8 1.4-4.8.6-.2.09-1 .7-1.2 3.09a2 2 0 0 1 -.9 1.5 2.6 2.6 0 0 1 -1.6.6 14 14 0 0 0 .2 3.6 2.22 2.22 0 0 1 -.3 1.6 1.1 1.1 0 0 1 -1 .6h-.2a1.69 1.69 0 0 1 -1.5-1.5l-1.1-8.1.7-4.3a.76.76 0 0 1 .2-.4 1.27 1.27 0 0 1 .6-.1.52.52 0 0 1 .4.2.66.66 0 0 1 .1.6l-.7 4.1 1.1 7.9c0 .2.1.4.2.4h.1l.1-.1a.48.48 0 0 0 0-.4 11.06 11.06 0 0 1 .1-5.7 4.53 4.53 0 0 0 .3-2.3c-.1-.2.1-.6.4-.8a.45.45 0 0 1 .5 0c.1 0 .3.2.4.5v.1a5.07 5.07 0 0 1 -.3 2.9l.6-.3c.2-.2.4-.4.4-.5.3-4.3 2.5-4.4 2.6-4.4h.3a4 4 0 0 0 3.4.2 2.24 2.24 0 0 0 .3-1c-.3-.5-.7-1.3-1.1-1.9a5.76 5.76 0 0 0 -.5-.9l-.8-1.2-.1-.1-.1-.07a.91.91 0 0 0 -.5-.3c-.2 0-.5.4-.6.5l-.1.1a.54.54 0 0 1 -.4.3.75.75 0 0 1 -.5-.1 2.36 2.36 0 0 1 -1-3.1q.15-.3.3-.3a.5.5 0 0 1 .5 0q.3.15.3.3a.45.45 0 0 1 0 .5.84.84 0 0 0 .1 1 1.78 1.78 0 0 1 1.3-.6 2.06 2.06 0 0 1 1.5.8 2.92 2.92 0 0 0 .9-1 .65.65 0 0 1 1.1.7 5.07 5.07 0 0 1 -1.3 1.3l.4.6v.1c.1.1.9 1.8 1.6 2.8.3.48-.4 1.88-.4 1.98z"/><path d="m21.3 6.88a1.09 1.09 0 0 1 -.5.1 2.92 2.92 0 0 1 -1.9-.41 1.43 1.43 0 0 1 -.6-1.2 1.1 1.1 0 0 1 0-.8 1.84 1.84 0 0 1 1.7-1.2 1.89 1.89 0 0 1 1.4.6.78.78 0 0 1 -.1 1.1.45.45 0 0 1 -.5 0c-.2-.1-.4-.3-.6-.3s-.5.2-.5.4v.2c.2.5.6.5 1.1.5s.8-.2 1 .3a.88.88 0 0 1 -.1.7z"/><path d="m33.4 9.38a2.77 2.77 0 0 0 .1.9c0-.2-.1-.6-.1-.9z"/><path d="m51.9 8.27c-.5-.7-.9-1.59-1.5-2.29a1.47 1.47 0 0 0 .6-.5.68.68 0 0 0 .2-.71c-.1-.29-.3-.5-.6-.4s-.5.6-.9.7-.5-.09-.8-.2a1.31 1.31 0 0 0 -1.2.3c-.2-.2.1-.6 0-.9s-.4-.5-.7-.4a.75.75 0 0 0 -.5.7 2.92 2.92 0 0 0 .2.9 1.56 1.56 0 0 0 .6.8.75.75 0 0 0 .9 0c.1-.1.2-.2.2-.3.2-.3.5-.1.7.2l.6.8s.2.3.3.5a9.13 9.13 0 0 0 .8 1.3 4.33 4.33 0 0 0 -.1.5 3.77 3.77 0 0 1 -2.5-.2h-.2s-1.7.1-2 2.9l-.2.2c-.1.1-.3.1-.4.2a3.89 3.89 0 0 0 .2-2v-.1c-.1-.2-.3-.29-.4-.4a.37.37 0 0 0 -.3.1.5.5 0 0 0 -.3.7s.2.4-.2 1.3a6.66 6.66 0 0 0 -.1 3.7v.1a.1.1 0 0 0 -.1.1h-.1a.1.1 0 0 1 -.1-.1l-.8-5.1.5-2.6c.1-.09.1-.2 0-.4a1.38 1.38 0 0 0 -.4-.3.19.19 0 0 0 -.3 0 .54.54 0 0 0 -.3.4l-.5 2.8.8 5.3a1.19 1.19 0 0 0 1.2 1.13 1 1 0 0 0 .9-.7 1.39 1.39 0 0 0 .2-1.1 6.38 6.38 0 0 1 -.1-2 4.6 4.6 0 0 0 1.3-.4h.1a1.52 1.52 0 0 0 .6-1c.1-1.3.6-1.7.9-1.8 1.4.6 3.2.3 3.6-.4.1.08.6-.83.2-1.33zm-6.5 4.73h.2c-.1-.12-.1 0-.2 0z"/><path d="m46 5a8.07 8.07 0 0 1 -1.7-.21 31.13 31.13 0 0 0 -5.2 0c-1.2 0-2.5.1-3.7.1h-.3a2.58 2.58 0 0 0 -2 1.2 4.22 4.22 0 0 0 -.7 3.3 4.6 4.6 0 0 1 -.4 2.8.37.37 0 0 0 -.1.3.66.66 0 0 0 .4.5h.1c.1 0 .2 0 .2-.1h.4v2.9a1.1 1.1 0 0 0 1 1.1h.5a.56.56 0 0 0 .6-.5v-.2a1.62 1.62 0 0 0 1.8.7.6.6 0 0 0 .4-.1 1.11 1.11 0 0 0 .3-1.09 9.36 9.36 0 0 1 -.4-1.6 1.63 1.63 0 0 1 .1-1.2 10.85 10.85 0 0 0 4 .3 2.2 2.2 0 0 0 .8-.1.61.61 0 0 0 .3-.7 1 1 0 0 0 -.5-.4c-.2-.11-.4 0-.6 0a9.26 9.26 0 0 1 -3.7-.21 5 5 0 0 0 .3-1.7 2.8 2.8 0 0 0 -.1-.9.54.54 0 0 0 -.8-.19c-.3.2-.2.6-.2 1a4.51 4.51 0 0 1 -.7 2.5 6.89 6.89 0 0 0 -.3.8 1.27 1.27 0 0 0 .1.6c.1.6.3 1.2.4 1.8v.3c-.2.3-.3-.3-.4-.4l-.3-.9c-.1-.4-.3-.9-.4-1.3l-.2-1.4a.6.6 0 0 0 .1-.4c0-.1-.1-.2-.2-.3a4.71 4.71 0 0 1 -.2-2.3.45.45 0 0 0 0-.5.52.52 0 0 0 -.4-.2c-.2-.1-.3 0-.5 0a.52.52 0 0 0 -.2.4 2.77 2.77 0 0 0 -.1.9c0 .3.1.6.1.9a2.77 2.77 0 0 1 -.1-.9v-.1a3.14 3.14 0 0 1 .3-2.5 2.38 2.38 0 0 1 1.3-.8l7.9-.2 3 .3c.2 0 .6-.2.6-.5-.1-.53-.3-.8-.6-.8zm-12 8 .1.4.8 2.6a.45.45 0 0 0 -.5-.3h-.4zm-.5-2.6c.1.4.2.9.3 1.2l-.7.9a5.29 5.29 0 0 0 .4-2.12z"/><path d="m45.6 12.88h-.2a.14.14 0 0 0 .2 0z"/><path d="m47.9 8.27c-.1.1-.2.21-.3.21a1.72 1.72 0 0 1 -2.3-.8 1.23 1.23 0 0 1 1.2-1.68 2 2 0 0 1 .9.29h.2v.1a.52.52 0 0 1 .2.4.54.54 0 0 1 -.2.41c-.2.2-.6.2-.7 0s-.4-.2-.4 0 .1.2.2.3.4 0 .6 0 .2-.1.3 0a.41.41 0 0 1 .3.4c.1.1 0 .28 0 .37z"/><path d="m48 33.38a4.22 4.22 0 0 1 -3.2 1.3 10.87 10.87 0 0 1 -1.8-.1 6.07 6.07 0 0 0 -1.8-.5c-.3.1-1.5.9-1.8 4.3a2.57 2.57 0 0 1 -1.2 1.9 3.37 3.37 0 0 1 -2 .9 12.82 12.82 0 0 0 .3 4.9 2.62 2.62 0 0 1 -.4 2.1 3.3 3.3 0 0 1 -1.8.9h-.2a2.06 2.06 0 0 1 -1.9-2c-.2-1.3-.4-2.6-.6-4-.2-1.1-.3-2.2-.5-3.3a23.48 23.48 0 0 1 -.5-3.7 23.76 23.76 0 0 1 .6-3.7 17 17 0 0 1 .4-2.2 1 1 0 0 1 .9-.7h.1a1 1 0 0 1 .7.9c-.4 2.3-1.1 4.7-.7 7 .5 3.1.9 6.2 1.4 9.3a.46.46 0 0 0 .4.5h.2c.1 0 .1 0 .2-.1l.1-.1c.1-.1.1-.5.1-.7a13.69 13.69 0 0 1 .2-7.5 5 5 0 0 0 .5-3 .82.82 0 0 1 1.6-.4v.1a7.83 7.83 0 0 1 -.5 3.8 1 1 0 0 0 .5-.4 1.09 1.09 0 0 0 .5-.7c.5-5.6 3.4-5.8 3.5-5.8h.4a7 7 0 0 0 4.3.5c1.1-.3 1.2-1.2.8-2.1a7.46 7.46 0 0 0 -.7-1.2c-.4-.6-.7-1.3-1.1-1.9s-.7-1.1-1-1.6-.7-1.1-1.2-1.2c-.2 0-.5.2-1 .9a.83.83 0 0 1 -1.1.3 3.18 3.18 0 0 1 -1.6-2c-.2-.8-.1-2.9 1.2-2.6a.86.86 0 0 1 .6.7c.1.7-.5 1.3.1 2a3 3 0 0 1 1.9-.9 2.17 2.17 0 0 1 1.9 1 4.34 4.34 0 0 0 1.5-1.4 1 1 0 0 1 1.1-.3h.1a1 1 0 0 1 .3 1.1 7.52 7.52 0 0 1 -1.9 2l.7.9c.1 0 .2.3 1.1 1.9s2 3.1.8 4.8c-.4-.01-.4.1-.5.1z"/><path d="m30.3 39.27a1 1 0 0 1 -.7.91h-1c-.8 0-1.9.09-3.1.09-1.9 0-4.4-.2-5.8-1.09a8 8 0 0 0 -.4 1.09l-.1.21c-.2.4.4 1.79.5 2.29a12.64 12.64 0 0 1 .5 3.3 2.37 2.37 0 0 1 -1.9 2.3 2.23 2.23 0 0 1 -1.8-1 7 7 0 0 1 -.8-2c-.5-1.8-.9-3.6-1.4-5.3a2.35 2.35 0 0 0 -.4 1.41c0 .79-.4 5.09.4 5.29.5.1 1-.2 1.4.3a.91.91 0 0 1 0 1 1.4 1.4 0 0 1 -.9.3 2.63 2.63 0 0 1 -2.4-.9 2.54 2.54 0 0 1 -.3-1.5v-5.1a2.77 2.77 0 0 1 .1-.9 2.09 2.09 0 0 1 .4-.6c.4-.5.7-1 1.1-1.5.1-.1.1-.2.2-.3a.61.61 0 0 0 -.1-.4 11.05 11.05 0 0 1 -.6-5.1 2 2 0 0 1 .3-1.07 1 1 0 0 1 1-.41.76.76 0 0 1 .5.7 2.86 2.86 0 0 1 -.1.91 8.76 8.76 0 0 0 .3 3.59 10.73 10.73 0 0 1 .5 1.71 6.15 6.15 0 0 1 .1 1.4 20.54 20.54 0 0 0 .9 4.3c.2.59.7 3.8 1.5 3.3.4-.21.3-.71.2-1.1-.3-1.3-.5-2.6-.8-4s.7-3 1.1-4.4c.4-1.21 1-2.91.5-4.21a.82.82 0 1 1 1.6-.4c.4 1.5-.1 3.6-.7 5.4l.1.1c1.2 1.2 5.4 1.2 8.9.8a1 1 0 0 1 1.2.6z"/><path d="m37.9 24.68a.92.92 0 0 1 -1 .8l-5.8-.71-15.3.5a3.77 3.77 0 0 0 -2.2 1.41c-1.1 1.3-1.4 3.3-1 5.8a14.27 14.27 0 0 1 -.7 6.9.35.35 0 0 1 -.1.2v.1a.67.67 0 0 1 -.7.4.6.6 0 0 1 -.4-.1 1 1 0 0 1 -.4-1.1 10.93 10.93 0 0 0 .7-6.2q-.6-4.35 1.2-6.9a6.39 6.39 0 0 1 5.1-2.4c3 0 6-.1 9-.2a67.62 67.62 0 0 1 11 .59c.3 0 .6.41.6.91z"/><path d="m40.4 30.88a.6.6 0 0 1 -.4.1 3.36 3.36 0 0 1 -2.6-.3 3 3 0 0 1 -1.4-2.2 2.41 2.41 0 0 1 4.2-1.48 1.43 1.43 0 0 1 .2.59 1.38 1.38 0 0 1 -.2.6.91.91 0 0 1 -1.2 0 .82.82 0 0 0 -1.2.1c-.2.2-.1.5 0 .7.5 1 1.6.2 2.3.3a.9.9 0 0 1 .6.6.78.78 0 0 1 -.2.8.39.39 0 0 1 -.1.19z"/></g></svg>