<svg fill="none" height="17" viewBox="0 0 16 17" width="16" xmlns="http://www.w3.org/2000/svg"><path d="m6 7.09041h-1.33333v1.33333h1.33333zm2.66667 0h-1.33334v1.33333h1.33334zm2.66663 0h-1.3333v1.33333h1.3333zm1.3334-4.66667h-.6667v-1.33333h-1.3333v1.33333h-5.33337v-1.33333h-1.33333v1.33333h-.66667c-.35362 0-.69276.14048-.94281.39053-.25004.25004-.39052.58918-.39052.9428v9.33333c0 .3536.14048.6928.39052.9428.25005.2501.58919.3905.94281.3905h9.33337c.3536 0 .6927-.1404.9428-.3905.25-.25.3905-.5892.3905-.9428v-9.33333c0-.35362-.1405-.69276-.3905-.9428-.2501-.25005-.5892-.39053-.9428-.39053zm0 10.66666h-9.33337v-7.33333h9.33337z" fill="#164558"/></svg>