<svg fill="none" height="22" viewBox="0 0 22 22" width="22" xmlns="http://www.w3.org/2000/svg"><path clip-rule="evenodd" d="m.5 4c0-.92826.368749-1.8185 1.02513-2.47487.65637-.656381 1.54661-1.02513 2.47487-1.02513h14c.9283 0 1.8185.368749 2.4749 1.02513.6564.65637 1.0251 1.54661 1.0251 2.47487v14c0 .9283-.3687 1.8185-1.0251 2.4749s-1.5466 1.0251-2.4749 1.0251h-14c-.92826 0-1.8185-.3687-2.47487-1.0251-.656381-.6564-1.02513-1.5466-1.02513-2.4749zm11.6667 2.33333c0-.30942-.123-.60616-.3417-.82495-.2188-.2188-.5156-.34171-.825-.34171s-.6062.12291-.825.34171c-.21875.21879-.34167.51553-.34167.82495v9.33337c0 .3094.12292.6061.34167.8249.2188.2188.5156.3417.825.3417s.6062-.1229.825-.3417c.2187-.2188.3417-.5155.3417-.8249zm-4.6667 3.5c0-.30942-.12292-.60616-.34171-.82495-.21879-.2188-.51554-.34171-.82496-.34171s-.60616.12291-.82495.34171c-.2188.21879-.34171.51553-.34171.82495v5.83337c0 .3094.12291.6061.34171.8249.21879.2188.51553.3417.82495.3417s.60617-.1229.82496-.3417.34171-.5155.34171-.8249zm9.3333 3.49997c0-.3094-.1229-.6061-.3417-.8249s-.5155-.3417-.8249-.3417c-.3095 0-.6062.1229-.825.3417s-.3417.5155-.3417.8249v2.3334c0 .3094.1229.6061.3417.8249s.5155.3417.825.3417c.3094 0 .6061-.1229.8249-.3417s.3417-.5155.3417-.8249z" fill="#fff" fill-opacity=".8" fill-rule="evenodd"/></svg>