<svg fill="none" height="56" viewBox="0 0 55 56" width="55" xmlns="http://www.w3.org/2000/svg" xmlns:xlink="http://www.w3.org/1999/xlink"><filter id="a" color-interpolation-filters="sRGB" filterUnits="userSpaceOnUse" height="54.6166" width="54" x=".5" y=".5"><feFlood flood-opacity="0" result="BackgroundImageFix"/><feColorMatrix in="SourceAlpha" result="hardAlpha" type="matrix" values="0 0 0 0 0 0 0 0 0 0 0 0 0 0 0 0 0 0 127 0"/><feOffset dy="4"/><feGaussianBlur stdDeviation="2"/><feComposite in2="hardAlpha" operator="out"/><feColorMatrix type="matrix" values="0 0 0 0 0 0 0 0 0 0 0 0 0 0 0 0 0 0 0.25 0"/><feBlend in2="BackgroundImageFix" mode="normal" result="effect1_dropShadow_20_1706"/><feBlend in="SourceGraphic" in2="effect1_dropShadow_20_1706" mode="normal" result="shape"/></filter><clipPath id="b"><path d="m16 8h23v24h-23z"/></clipPath><g filter="url(#a)" opacity=".91"><path clip-rule="evenodd" d="m5 6c0-2.76142 2.23858-5 5-5h35c2.7614 0 5 2.23858 5 5v27.2331c0 2.7614-2.2386 5-5 5h-12.0561c-1.2311 4.727-5.2974 8.3834-5.2974 8.3834s-4.0664-3.6564-5.2975-8.3834h-12.349c-2.76142 0-5-2.2386-5-5z" fill="#f17830" fill-rule="evenodd"/><path d="m32.9439 38.2331v-.5c-.2276 0-.4265.1537-.4838.374zm-5.2974 8.3834-.3344.3718c.1901.171.4786.171.6687 0zm-5.2975-8.3834.4839-.126c-.0574-.2203-.2563-.374-.4839-.374zm-12.349-37.7331c-3.03757 0-5.5 2.46244-5.5 5.5h1c0-2.48528 2.01472-4.5 4.5-4.5zm35 0h-35v1h35zm5.5 5.5c0-3.03757-2.4624-5.5-5.5-5.5v1c2.4853 0 4.5 2.01472 4.5 4.5zm0 27.2331v-27.2331h-1v27.2331zm-5.5 5.5c3.0376 0 5.5-2.4625 5.5-5.5h-1c0 2.4852-2.0147 4.5-4.5 4.5zm-12.0561 0h12.0561v-1h-12.0561zm-5.2974 7.8834c.3343.3718.3344.3717.3345.3716.0001 0 .0002-.0001.0003-.0003.0003-.0002.0006-.0005.0009-.0008.0008-.0006.0017-.0015.003-.0026.0024-.0023.0058-.0054.0102-.0093.0087-.008.0212-.0195.0372-.0344.0322-.0298.0786-.0734.1375-.1301.1179-.1133.2863-.2793.4914-.4928.4101-.4266.9688-1.0446 1.5667-1.8134 1.1913-1.5317 2.56-3.6896 3.1996-6.1453l-.9677-.252c-.5916 2.2713-1.8716 4.3052-3.0213 5.7834-.5725.7362-1.1074 1.3278-1.4982 1.7344-.1953.2032-.3543.3598-.4635.4649-.0547.0525-.0968.0921-.1249.1181-.014.013-.0245.0227-.0313.0288-.0033.0031-.0058.0053-.0072.0067-.0008.0006-.0013.0011-.0015.0013-.0002.0001-.0002.0002-.0002.0002.0001-.0001.0001-.0002.3345.3716zm-5.7814-8.2574c.6396 2.4557 2.0083 4.6136 3.1996 6.1453.5979.7688 1.1566 1.3868 1.5667 1.8134.2051.2135.3735.3795.4914.4928.059.0567.1053.1003.1375.1301.016.0149.0285.0264.0372.0344.0044.0039.0078.007.0102.0093.0013.0011.0022.002.003.0026.0003.0003.0007.0006.0009.0008.0001.0002.0003.0003.0003.0003.0001.0001.0002.0002.3346-.3716.3343-.3718.3343-.3717.3344-.3716s0-.0001-.0001-.0002c-.0003-.0002-.0008-.0007-.0015-.0013-.0015-.0014-.0039-.0036-.0073-.0067-.0068-.0061-.0173-.0158-.0313-.0288-.028-.026-.0702-.0656-.1248-.1181-.1093-.1051-.2683-.2617-.4636-.4649-.3908-.4066-.9256-.9982-1.4982-1.7344-1.1497-1.4782-2.4297-3.5121-3.0212-5.7834zm-11.8651.374h12.349v-1h-12.349zm-5.5-5.5c0 3.0375 2.46243 5.5 5.5 5.5v-1c-2.48528 0-4.5-2.0147-4.5-4.5zm0-27.2331v27.2331h1v-27.2331z" fill="#fff"/><g clip-path="url(#b)"><path d="m27.3515 20.8699c-.2053 0-.3963-.0717-.545-.2085-.1415-.1303-.2264-.3128-.2264-.5018v-11.29294c0-.18897.0778-.36492.2264-.50176.1416-.13033.3397-.20853.545-.20853.2052 0 .3963.07168.5449.20853.1415.13033.2264.31279.2264.50176v11.29294c0 .189-.0778.3649-.2264.5018-.1486.1368-.3397.2085-.5449.2085z" fill="#fff" stroke="#f17830" stroke-miterlimit="10" stroke-width=".5"/><path d="m27.5001 31.9152c-1.2314 0-2.4416-.1825-3.6092-.5409-2.0877-.6386-3.9207-1.818-5.3007-3.4015s-2.2221-3.4863-2.4486-5.5064c-.2264-2.0201.1911-4.0402 1.1889-5.8453 1.005-1.805 2.5407-3.2973 4.4444-4.3138.092-.0456.2052-.0717.3113-.0717.0637 0 .1274.0065.1911.0261.1699.0456.3114.1498.3963.2867.0991.1499.1203.3128.0779.4692-.0354.1564-.1416.2932-.2902.3779-1.6984.8993-3.0643 2.2352-3.9418 3.8447-.8846 1.6161-1.2314 3.4146-1.012 5.2131.2194 1.7921.9978 3.4798 2.2504 4.8678s2.9086 2.4046 4.784 2.9389c.9554.2737 1.9533.4106 2.9582.4106.9483 0 1.8824-.1239 2.7954-.365 1.8824-.5017 3.5597-1.4922 4.8335-2.8607 1.2809-1.3684 2.0877-3.0431 2.3425-4.8352.1769-1.2381 0-2.8542-.4742-4.4311-.1769-.5865.3751-.7494.4034-.7559.0637-.0131.1274-.0196.1911-.0196.3397 0 .5661.1955.7218.606.6157 1.6617.7714 3.4538.4459 5.1806-.3751 2.0005-1.3588 3.8447-2.852 5.337-1.4933 1.4922-3.4111 2.5479-5.5413 3.0562-.9483.2215-1.9037.3323-2.8661.3323z" fill="#fff"/><path d="m22.0928 12.3269c.0566 0 .1132.0065.1628.0195.1486.0391.2689.1303.3468.2476.0778.1238.099.2672.0636.404-.0353.1369-.1273.2542-.2476.3259-1.7127.9123-3.0927 2.2546-3.9844 3.8838-.8916 1.6291-1.2455 3.4406-1.019 5.2522.2194 1.8116 1.012 3.5123 2.2717 4.9134 1.2667 1.401 2.9298 2.4306 4.8264 2.9649.9696.2737 1.9674.4106 2.9794.4106.9554 0 1.9037-.1238 2.8166-.3649 1.9037-.5083 3.588-1.5053 4.876-2.8868s2.1089-3.0692 2.3637-4.8743c.1769-1.2446 0-2.8737-.4741-4.4637-.1487-.4888.2618-.6321.3255-.6517.0637-.013.1203-.0195.1769-.0195.2973 0 .4954.1694.6369.5539.6087 1.6486.7644 3.4276.4459 5.1414-.368 1.981-1.3517 3.8121-2.8308 5.2914-1.4791 1.4792-3.3827 2.5283-5.4987 3.0301-.92.2215-1.8754.3323-2.8237.3323-1.2173 0-2.4203-.1824-3.581-.5343-2.0735-.6386-3.8923-1.8051-5.2581-3.3755-1.3659-1.5705-2.208-3.4602-2.4274-5.4608-.2265-2.007.184-4.0076 1.1748-5.7996.9978-1.792 2.5194-3.2713 4.4089-4.2748.0849-.0456.1769-.0651.2689-.0651zm0-.163c-.1203 0-.2477.0261-.3538.0782-1.9179 1.0231-3.4748 2.5349-4.4797 4.3465-1.0049 1.8181-1.4225 3.8642-1.2031 5.8908.2265 2.0267 1.0828 3.9555 2.4628 5.5455 1.387 1.59 3.2412 2.7825 5.343 3.4277 1.1748.3584 2.4062.5408 3.6376.5408.9624 0 1.9249-.1108 2.8732-.3323 2.1443-.5083 4.0834-1.577 5.5837-3.0758 1.5003-1.4987 2.4982-3.369 2.8732-5.376.3256-1.7529.1699-3.5515-.4529-5.2262-.1132-.3063-.3255-.6647-.7997-.6647-.0637 0-.1344.0065-.2123.0196 0 0-.6652.1824-.46.8536.4742 1.564.644 3.1735.4742 4.3986-.2477 1.7725-1.0545 3.4342-2.3213 4.7896-1.2667 1.3554-2.9298 2.3394-4.791 2.8346-.9059.2411-1.84.3584-2.7671.3584-.9908 0-1.9745-.1368-2.9299-.404-1.8541-.5278-3.503-1.5379-4.7415-2.9128-1.2385-1.375-2.0169-3.0497-2.2363-4.8287-.2194-1.7725.1274-3.571 1.0049-5.1675.8776-1.5965 2.2292-2.8998 3.9136-3.7926.1627-.0977.283-.2541.3326-.4301.0495-.1759.0212-.3649-.0779-.5213s-.2618-.2737-.4529-.3258c-.0708-.0195-.1415-.0261-.2194-.0261z" fill="#f17830"/><path d="m33.664 16.4257c1.6206 0 2.9369-1.212 2.9369-2.7043s-1.3163-2.7043-2.9369-2.7043-2.944 1.2055-2.944 2.7043 1.3163 2.7043 2.944 2.7043z" fill="#fff"/></g></g></svg>