<svg viewBox="0 0 43.48 48.18" xmlns="http://www.w3.org/2000/svg"><g fill="#d2d2d2"><path d="m23 1.7v22.5a1.35 1.35 0 0 1 -.5 1.2 1.91 1.91 0 0 1 -1.2.5 1.46 1.46 0 0 1 -1.2-.5 1.66 1.66 0 0 1 -.5-1.2v-22.5a1.46 1.46 0 0 1 .5-1.2 1.66 1.66 0 0 1 1.2-.5 1.46 1.46 0 0 1 1.2.5 1.85 1.85 0 0 1 .5 1.2z"/><path d="m7.24 38.4c.1.1.1.2.2.3l.2.2a1 1 0 0 0 -.4-.5z"/><path d="m7.24 38.4c.1.1.1.2.2.3l.2.2a1 1 0 0 0 -.4-.5z"/><path d="m42.34 20a2.2 2.2 0 0 0 -1.6-1.5 1.72 1.72 0 0 0 -1.8 1.3v.2a7.79 7.79 0 0 0 .4 2.1 15.72 15.72 0 0 1 .4 2.3 20.1 20.1 0 0 1 .1 4.9 18.4 18.4 0 0 1 -4.3 9.5 18.71 18.71 0 0 1 -26.2 1.5 17.91 17.91 0 0 1 -5.6-16.6 17.57 17.57 0 0 1 7.6-11.3 8.78 8.78 0 0 0 1.5-1.2 2 2 0 0 0 .5-1.8 1.82 1.82 0 0 0 -1.1-1 2 2 0 0 0 -.8-.1 5 5 0 0 0 -2.1.9 21.14 21.14 0 0 0 -9 13.7 21.57 21.57 0 0 0 3.4 16 22.14 22.14 0 0 0 27 7.4 20.44 20.44 0 0 0 7-5 21.11 21.11 0 0 0 5.5-10.8 23.28 23.28 0 0 0 -.9-10.5zm-34.9 18.6c-.1-.1-.2-.2-.2-.3.1.2.3.3.4.5z"/><ellipse cx="33.04" cy="11.3" rx="5.8" ry="5.6"/></g></svg>