<svg viewBox="0 0 53.3 37.48" xmlns="http://www.w3.org/2000/svg"><g fill="#d2d2d2"><path d="m27.57 23.86c0 .5-.4 1.2-1 1.2a40.55 40.55 0 0 1 -5.4.3c-3.5 0-6.1-.5-7.7-1.4-.4 1-.7 1.7-.8 2l1.33 6.59a3.28 3.28 0 0 1 -.6 2.8 2.9 2.9 0 0 1 -2.1.9h-.2a2.83 2.83 0 0 1 -2.6-2.09l-2.2-7.6-.3-2.3-.9 1.2.1 7.9a.47.47 0 0 0 .4.5h1.4a1.17 1.17 0 0 1 1.07 1.14c0 .9-.5 1.2-1.1 1.2h-1.4a2.62 2.62 0 0 1 -2.5-2.73v-.07l-.07-8.34c0-.2.1-.3.1-.5l.1-.1 2.3-3.3a17.53 17.53 0 0 1 -.9-8.7 1.12 1.12 0 0 1 1.3-.8 1.1 1.1 0 0 1 .8 1.3 14.18 14.18 0 0 0 .9 7.7v.1c0 .1.1.1.1.2v.2l.7 4.8 2.1 7.5c.1.3.4.6.6.6h.2a.51.51 0 0 0 .4-.2.91.91 0 0 0 .1-1l-1.4-7a1.83 1.83 0 0 1 .1-.7c.9-1.9 3.3-7.8 2.5-10.4a1.47 1.47 0 0 1 .1-.9 1.31 1.31 0 0 1 .7-.5 1.39 1.39 0 0 1 .9.1.94.94 0 0 1 .4.7c.6 2-.1 5.09-.9 7.59 2.1 1.6 8.9 1.41 12.2.91a.86.86 0 0 1 .8.2 4.48 4.48 0 0 1 .37 1z"/><path d="m7.67 20.86.1.1z"/><path d="m38.17 3.75a1.2 1.2 0 0 1 -1.2.91l-8-1-21.1.7-.1.1h-.1a5.64 5.64 0 0 0 -3.1 2c-1.5 1.79-2 4.59-1.5 8.2a18 18 0 0 1 -1.2 9.8.33.33 0 0 1 -.1.29.76.76 0 0 1 -.7.3 1.07 1.07 0 0 1 -.5-.05 1.18 1.18 0 0 1 -.5-1.41 16.07 16.07 0 0 0 1-8.59c-.6-4.3.1-7.71 2.2-10a8.58 8.58 0 0 1 4.1-2.5l.3-.1a.34.34 0 0 1 .3-.1l21.2-.6 8.1 1a1.5 1.5 0 0 1 .8.6.65.65 0 0 1 .1.45z"/><path d="m52.37 16c0 .09-.1.09-.1.2-1 1.8-5.7 2.2-9.4.8-.5.2-2.2 1.4-2.7 6a4.1 4.1 0 0 1 -1.6 2.5 7.7 7.7 0 0 1 -3.1 1 18.4 18.4 0 0 0 .3 7.09 3.43 3.43 0 0 1 -.5 2.91 2.31 2.31 0 0 1 -1.9 1h-.3a2.76 2.76 0 0 1 -2.6-2.71l-2.2-15v-.2l1.3-8.09a1.21 1.21 0 0 1 1.2-.91 1.1 1.1 0 0 1 .9 1.2l-1.3 8 2.2 14.91c.1.5.3.8.5.8h.3a.49.49 0 0 0 .4-.21.91.91 0 0 0 .1-1 20.48 20.48 0 0 1 .2-10.4c1.1-2.8.6-4.2.6-4.2a1.11 1.11 0 0 1 .1-.8.63.63 0 0 1 .6-.5 1 1 0 0 1 1.3.7c.2.41.5 2.3-.7 5.6a5.92 5.92 0 0 0 1.4-.7c.7-.6.8-.9.8-1 .6-7.7 4.7-8 4.8-8s.4 0 .5.1a11.93 11.93 0 0 0 3.87.75 10.07 10.07 0 0 0 2.84-.27.57.57 0 0 0 .51-.45 7.22 7.22 0 0 0 .35-1 1.33 1.33 0 0 0 0-.81 5.4 5.4 0 0 0 -.51-.77c-.25-.42-.5-.85-.74-1.29l-.58-1.06-.21-.51c0-.09-.23-.31-.23-.41a7.82 7.82 0 0 1 -.6-1.1l-1.7-2.4c-.5-.8-.9-1.1-1.4-1.1-.7 0-1.4.9-1.6 1.2a1 1 0 0 1 -1.34.43h-.06a4.2 4.2 0 0 1 -2-5.58.92.92 0 0 1 .6-.6 1.22 1.22 0 0 1 .8 0 1.57 1.57 0 0 1 .6.6 1.1 1.1 0 0 1 0 .8 1.82 1.82 0 0 0 .4 2.3 4.09 4.09 0 0 1 2.6-1.3 3.46 3.46 0 0 1 2.6 1.3 6.52 6.52 0 0 0 2.3-2 1 1 0 0 1 .8-.5 1.83 1.83 0 0 1 .7.2 1.32 1.32 0 0 1 .5.8 1.76 1.76 0 0 1 -.2.7 6.11 6.11 0 0 1 -2.7 2.5l1 1.4a10.76 10.76 0 0 1 .8 1.4c.7 1.21 1.6 2.91 2.3 4.1.5.74-.6 3.24-.8 3.58z"/><path d="m42.26 11.35c-.79 1.36-3 1.45-4.3.79a3.55 3.55 0 0 1 -1.86-3.68 3.66 3.66 0 0 1 3.19-2.46c1-.13 3.16.68 2.76 2a1 1 0 0 1 -1 .68c-.49 0-.83-.44-1.3-.54a1.63 1.63 0 0 0 -1.39.53.69.69 0 0 0 -.11.13.37.37 0 0 0 0 .18 1.64 1.64 0 0 0 .75 1.1c1.07.71 2.21-.56 3.16.11a.81.81 0 0 1 .31.4.94.94 0 0 1 -.1.64z"/><path d="m36.24 37.37a7.36 7.36 0 0 1 -1.1-.1.8.8 0 0 1 .27-1.58 2.35 2.35 0 0 0 2-.28c.63-.65.29-2.27.18-2.8v-.11a21 21 0 0 1 -.43-4.42v-3a.8.8 0 1 1 1.6 0v3a19.34 19.34 0 0 0 .4 4.1v.1c.17.82.62 3-.6 4.24a3 3 0 0 1 -2.32.85z"/></g></svg>