<svg fill="none" height="33" viewBox="0 0 32 33" width="32" xmlns="http://www.w3.org/2000/svg" xmlns:xlink="http://www.w3.org/1999/xlink"><filter id="a" color-interpolation-filters="sRGB" filterUnits="userSpaceOnUse" height="35.0875" width="29.3334" x="1.33337" y="2.75"><feFlood flood-opacity="0" result="BackgroundImageFix"/><feColorMatrix in="SourceAlpha" result="hardAlpha" type="matrix" values="0 0 0 0 0 0 0 0 0 0 0 0 0 0 0 0 0 0 127 0"/><feOffset dy="4"/><feGaussianBlur stdDeviation="2"/><feComposite in2="hardAlpha" operator="out"/><feColorMatrix type="matrix" values="0 0 0 0 0 0 0 0 0 0 0 0 0 0 0 0 0 0 0.25 0"/><feBlend in2="BackgroundImageFix" mode="normal" result="effect1_dropShadow_31_1982"/><feBlend in="SourceGraphic" in2="effect1_dropShadow_31_1982" mode="normal" result="shape"/></filter><clipPath id="b"><path d="m0 0h32v33h-32z"/></clipPath><g clip-path="url(#b)" opacity=".92"><g filter="url(#a)"><path d="m16 16.1562c.6445 0 1.1945-.2348 1.65-.7046.4556-.4698.6834-1.037.6834-1.7016s-.2278-1.2318-.6834-1.7016c-.4555-.4698-1.0055-.7046-1.65-.7046-.6444 0-1.1944.2348-1.65.7046-.4555.4698-.6833 1.037-.6833 1.7016s.2278 1.2318.6833 1.7016c.4556.4698 1.0056.7046 1.65.7046zm.0334 13.6813c-.1556 0-.3-.0229-.4334-.0688-.1333-.0458-.2555-.1145-.3666-.2062-3.3111-3.0021-5.78892-5.7865-7.43336-8.3531-1.64444-2.5667-2.46667-4.9615-2.46667-7.1844 0-3.4375 1.07223-6.17604 3.21667-8.21563 2.14446-2.03958 4.62776-3.05937 7.44996-3.05937 2.8223 0 5.3056 1.01979 7.45 3.05937 2.1445 2.03959 3.2167 4.77813 3.2167 8.21563 0 2.2229-.8222 4.6177-2.4667 7.1844-1.6444 2.5666-4.1222 5.351-7.4333 8.3531-.1111.0917-.2278.1604-.35.2062-.1222.0459-.25.0688-.3833.0688z" fill="#f17830"/></g></g></svg>