<svg viewBox="0 0 41.8 52.4" xmlns="http://www.w3.org/2000/svg"><path d="m25.9 10.4a9.09 9.09 0 0 0 -6.4-2.7 9.22 9.22 0 0 0 -5.1 1.5 9.1 9.1 0 0 0 -3.4 4.1 8.76 8.76 0 0 0 -.5 5.3 8.66 8.66 0 0 0 2.5 4.7 9.37 9.37 0 0 0 4.7 2.5 8.76 8.76 0 0 0 5.3-.5 9.1 9.1 0 0 0 4.1-3.4 9.22 9.22 0 0 0 1.5-5.1 9.46 9.46 0 0 0 -2.7-6.4zm-2.1 10.8a6 6 0 0 1 -4.2 1.8h-.1a6.74 6.74 0 0 1 -3.4-1 5.77 5.77 0 0 1 -2.2-2.7 5.26 5.26 0 0 1 -.3-3.5 5.32 5.32 0 0 1 1.7-3.1 6.34 6.34 0 0 1 3.1-1.7 6 6 0 0 1 3.5.4 5.93 5.93 0 0 1 3.7 5.6 6.37 6.37 0 0 1 -1.8 4.2z" fill="#164558"/><path d="m36.6 17.8a1.53 1.53 0 0 1 1.5 1.7c-.6 6.7-4.7 13.6-7.6 17.8l-.6.9c-3.1 4.4-6.4 8.8-9.9 12.9l-1.1 1.3-1.1-1.3a157.26 157.26 0 0 1 -9.9-12.9l-.6-.8c-3.1-4.6-7.3-10.8-7.3-18.4a19.6 19.6 0 0 1 2.3-9.2 18.71 18.71 0 0 1 6.5-6.9 19.15 19.15 0 0 1 9-2.9h1.1a17 17 0 0 1 6.7 1.3 1.63 1.63 0 0 1 .9 1.9 1.6 1.6 0 0 1 -.7.9 1.9 1.9 0 0 1 -1.3.1 15.46 15.46 0 0 0 -6-1 17.15 17.15 0 0 0 -7.7 2.2 15.59 15.59 0 0 0 -5.6 5.8 16.56 16.56 0 0 0 -2.1 7.8c0 6.5 3.9 12.4 6.8 16.6l.6 1a136.93 136.93 0 0 0 8.4 11.1l.1.1.1-.1a120 120 0 0 0 8.4-11.1l.6-.9c2.7-3.9 6.6-10.5 7.1-16.5a1.37 1.37 0 0 1 1.4-1.4z" fill="#164558"/><ellipse cx="35.6" cy="8.1" fill="#ef7832" rx="6.2" ry="6.1"/></svg>