<svg fill="none" height="56" viewBox="0 0 55 56" width="55" xmlns="http://www.w3.org/2000/svg" xmlns:xlink="http://www.w3.org/1999/xlink"><filter id="a" color-interpolation-filters="sRGB" filterUnits="userSpaceOnUse" height="54.6166" width="54" x=".5" y=".5"><feFlood flood-opacity="0" result="BackgroundImageFix"/><feColorMatrix in="SourceAlpha" result="hardAlpha" type="matrix" values="0 0 0 0 0 0 0 0 0 0 0 0 0 0 0 0 0 0 127 0"/><feOffset dy="4"/><feGaussianBlur stdDeviation="2"/><feComposite in2="hardAlpha" operator="out"/><feColorMatrix type="matrix" values="0 0 0 0 0 0 0 0 0 0 0 0 0 0 0 0 0 0 0.25 0"/><feBlend in2="BackgroundImageFix" mode="normal" result="effect1_dropShadow_20_1736"/><feBlend in="SourceGraphic" in2="effect1_dropShadow_20_1736" mode="normal" result="shape"/></filter><g filter="url(#a)" opacity=".91"><path clip-rule="evenodd" d="m5 6c0-2.76142 2.23858-5 5-5h35c2.7614 0 5 2.23858 5 5v27.2331c0 2.7614-2.2386 5-5 5h-23.0561c-1.2311 4.727-5.2974 8.3834-5.2974 8.3834s-4.0664-3.6564-5.2975-8.3834h-1.349c-2.76142 0-5-2.2386-5-5z" fill="#f17830" fill-rule="evenodd"/><g fill="#fff"><path d="m21.9439 38.2331v-.5c-.2276 0-.4265.1537-.4838.374zm-5.2974 8.3834-.3344.3718c.1901.171.4786.171.6687 0zm-5.2975-8.3834.4839-.126c-.0574-.2203-.2563-.374-.4839-.374zm-1.349-37.7331c-3.03757 0-5.5 2.46244-5.5 5.5h1c0-2.48528 2.01472-4.5 4.5-4.5zm35 0h-35v1h35zm5.5 5.5c0-3.03757-2.4624-5.5-5.5-5.5v1c2.4853 0 4.5 2.01472 4.5 4.5zm0 27.2331v-27.2331h-1v27.2331zm-5.5 5.5c3.0376 0 5.5-2.4625 5.5-5.5h-1c0 2.4852-2.0147 4.5-4.5 4.5zm-23.0561 0h23.0561v-1h-23.0561zm-5.2974 7.8834c.3343.3718.3344.3717.3345.3716.0001 0 .0002-.0001.0003-.0003.0003-.0002.0006-.0005.0009-.0008.0008-.0006.0017-.0015.003-.0026.0024-.0023.0058-.0054.0102-.0093.0087-.008.0212-.0195.0372-.0344.0322-.0298.0786-.0734.1375-.1301.1179-.1133.2863-.2793.4914-.4928.4101-.4266.9688-1.0446 1.5667-1.8134 1.1913-1.5317 2.56-3.6896 3.1996-6.1453l-.9677-.252c-.5916 2.2713-1.8716 4.3052-3.0213 5.7834-.5725.7362-1.1074 1.3278-1.4982 1.7344-.1953.2032-.3543.3598-.4635.4649-.0547.0525-.0968.0921-.1249.1181-.014.013-.0245.0227-.0313.0288-.0033.0031-.0058.0053-.0072.0067-.0008.0006-.0013.0011-.0015.0013-.0002.0001-.0002.0002-.0002.0002.0001-.0001.0001-.0002.3345.3716zm-5.7814-8.2574c.6396 2.4557 2.0083 4.6136 3.1996 6.1453.5979.7688 1.1566 1.3868 1.5667 1.8134.2051.2135.3735.3795.4914.4928.059.0567.1054.1003.1375.1301.016.0149.0285.0264.0372.0344.0044.0039.0078.007.0102.0093.0013.0011.0022.002.003.0026.0003.0003.0007.0006.0009.0008.0001.0002.0003.0003.0003.0003.0001.0001.0002.0002.3346-.3716.3343-.3718.3343-.3717.3344-.3716s0-.0001-.0001-.0002c-.0003-.0002-.0008-.0007-.0015-.0013-.0015-.0014-.0039-.0036-.0073-.0067-.0068-.0061-.0173-.0158-.0313-.0288-.028-.026-.0702-.0656-.1248-.1181-.1093-.1051-.2683-.2617-.4636-.4649-.3908-.4066-.9256-.9982-1.4982-1.7344-1.1497-1.4782-2.4297-3.5121-3.0212-5.7834zm-.8651.374h1.349v-1h-1.349zm-5.5-5.5c0 3.0375 2.46243 5.5 5.5 5.5v-1c-2.48528 0-4.5-2.0147-4.5-4.5zm0-27.2331v27.2331h1v-27.2331z"/><path clip-rule="evenodd" d="m27.5007 13.946c3.6273.0002 7.1159 1.4755 9.7447 4.121.198.2042.5144.2017.7093-.0058l1.8923-2.0215c.0988-.1052.1538-.2477.153-.396s-.0574-.2901-.1573-.3941c-6.8999-6.99946-17.7852-6.99946-24.6851 0-.1.1039-.1567.2457-.1576.394-.0009.1482.054.2908.1527.3961l1.8928 2.0215c.1949.2078.5115.2103.7094.0058 2.6292-2.6457 6.1181-4.121 9.7458-4.121zm.0001 6.5765c1.9929-.0001 3.9148.784 5.3921 2.2.1998.201.5145.1966.7093-.0098l1.8901-2.0215c.0996-.106.1548-.2499.1534-.3994-.0015-.1494-.0594-.2921-.161-.3959-4.4986-4.4295-11.4654-4.4295-15.964 0-.1016.1038-.1596.2465-.1609.3961-.0014.1495.0541.2933.1538.3992l1.8896 2.0215c.1948.2064.5095.2108.7093.0098 1.4763-1.415 3.3966-2.1991 5.3883-2.2zm3.7867 4.4251c.0029.1499-.0528.2944-.1539.3994l-3.2695 3.4926c-.0959.1027-.2265.1604-.3629.1604-.1363 0-.267-.0577-.3628-.1604l-3.2701-3.4926c-.101-.1051-.1566-.2496-.1536-.3995s.0643-.2919.1694-.3923c2.0881-1.8695 5.1462-1.8695 7.2342 0 .1051.1005.1663.2425.1692.3924z" fill-rule="evenodd"/></g></g></svg>