<svg fill="none" height="18" viewBox="0 0 22 18" width="22" xmlns="http://www.w3.org/2000/svg"><path d="m1.66667 5.49992c-.33056 0-.60745-.112-.83067-.336-.224-.22322-.336-.50011-.336-.83067v-2.33333c0-.33056.112-.60783.336-.83183.22322-.223227.50011-.334838.83067-.334838h2.33333c.33056 0 .60783.111611.83183.334838.22323.224.33484.50127.33484.83183v2.33333c0 .33056-.11161.60745-.33484.83067-.224.224-.50127.336-.83183.336zm5.83333 0c-.33056 0-.60744-.112-.83067-.336-.224-.22322-.336-.50011-.336-.83067v-2.33333c0-.33056.112-.60783.336-.83183.22323-.223227.50011-.334838.83067-.334838h12.8333c.3306 0 .6075.111611.8307.334838.224.224.336.50127.336.83183v2.33333c0 .33056-.112.60745-.336.83067-.2232.224-.5001.336-.8307.336zm0 5.83338c-.33056 0-.60744-.112-.83067-.336-.224-.2233-.336-.5002-.336-.8307v-2.33335c0-.33055.112-.60783.336-.83183.22323-.22322.50011-.33483.83067-.33483h12.8333c.3306 0 .6075.11161.8307.33483.224.224.336.50128.336.83183v2.33335c0 .3305-.112.6074-.336.8307-.2232.224-.5001.336-.8307.336zm-5.83333 0c-.33056 0-.60745-.112-.83067-.336-.224-.2233-.336-.5002-.336-.8307v-2.33335c0-.33055.112-.60783.336-.83183.22322-.22322.50011-.33483.83067-.33483h2.33333c.33056 0 .60783.11161.83183.33483.22323.224.33484.50128.33484.83183v2.33335c0 .3305-.11161.6074-.33484.8307-.224.224-.50127.336-.83183.336zm5.83333 5.8333c-.33056 0-.60744-.112-.83067-.336-.224-.2232-.336-.5001-.336-.8307v-2.3333c0-.3306.112-.6078.336-.8318.22323-.2233.50011-.3349.83067-.3349h12.8333c.3306 0 .6075.1116.8307.3349.224.224.336.5012.336.8318v2.3333c0 .3306-.112.6075-.336.8307-.2232.224-.5001.336-.8307.336zm-5.83333 0c-.33056 0-.60745-.112-.83067-.336-.224-.2232-.336-.5001-.336-.8307v-2.3333c0-.3306.112-.6078.336-.8318.22322-.2233.50011-.3349.83067-.3349h2.33333c.33056 0 .60783.1116.83183.3349.22323.224.33484.5012.33484.8318v2.3333c0 .3306-.11161.6075-.33484.8307-.224.224-.50127.336-.83183.336z" fill="#fff" fill-opacity=".8"/></svg>