<svg fill="none" height="33" viewBox="0 0 33 33" width="33" xmlns="http://www.w3.org/2000/svg" xmlns:xlink="http://www.w3.org/1999/xlink"><clipPath id="a"><path d="m0 0h33v33h-33z" transform="matrix(-1 0 0 1 33 0)"/></clipPath><g clip-path="url(#a)" fill="#d2d2d2"><path d="m26.5834 5.50002h-14.6667v8.98338h-1.8333v-8.98338c0-.48623.1931-.95255.5369-1.29636.3438-.34382.8102-.53697 1.2964-.53697h14.6667c.4862 0 .9525.19315 1.2963.53697.3438.34381.537.81013.537 1.29636v21.99998c0 .4862-.1932.9526-.537 1.2964s-.8101.537-1.2963.537h-14.6667c-.4862 0-.9526-.1932-1.2964-.537s-.5369-.8102-.5369-1.2964h16.5z"/><path d="m7.18667 15.84c.17536-.1502.40093-.2287.63163-.2197.23071.0089.44955.1045.6128.2678.16326.1632.2589.3821.26781.6128s-.06956.4562-.21974.6316l-3.09833 3.0342h13.29166c.2431 0 .4763.0965.6482.2684s.2685.4051.2685.6482-.0966.4763-.2685.6482-.4051.2685-.6482.2685h-13.29166l3.09833 3.1717c.09596.0821.1739.1833.22892.297s.08594.2376.09081.3638c.00488.1263-.01639.2522-.06248.3698-.04608.1176-.11599.2245-.20532.3138s-.19617.1592-.3138.2053-.24352.0674-.36976.0625-.25011-.0358-.36384-.0908c-.11373-.0551-.21485-.133-.29703-.2289l-5.35333-5.3167z"/></g></svg>