<svg fill="none" height="22" viewBox="0 0 22 22" width="22" xmlns="http://www.w3.org/2000/svg"><path d="m13.7417 21.2375-6.2417-2.1875-5.425 2.1c-.38889.1555-.74861.1116-1.079167-.1319-.330555-.2426-.495833-.5681-.495833-.9765v-16.33331c0-.25278.073111-.47639.219333-.67084.145445-.19444.344557-.34027.597337-.4375l5.425-1.837496c.25277-.077778.50555-.121722.75833-.131833.25278-.009334.50555.034611.75833.131833l6.24167 2.187496 5.425-2.099996c.3889-.155555.7486-.112 1.0792.130667.3305.243449.4958.569329.4958.977669v16.33331c0 .2528-.0731.4764-.2193.6709-.1455.1944-.3446.3402-.5974.4375l-5.425 1.8375c-.2527.0777-.5055.1213-.7583.1306-.2528.0101-.5056-.0334-.7583-.1306zm-.4084-2.5959v-13.64998l-4.66663-1.63333v13.65001zm2.3334 0 3.5-1.1666v-13.82505l-3.5 1.34167zm-12.83337-.2916 3.5-1.3417v-13.65001l-3.5 1.16666zm12.83337-13.35838v13.64998zm-9.33337-1.63333v13.65001z" fill="#f17830"/></svg>