<svg fill="none" height="29" viewBox="0 0 32 29" width="32" xmlns="http://www.w3.org/2000/svg"><path d="m30.9518 2.87162c-.1142-.11486-.2285-.11486-.3427-.22973-.1142 0-.3426 0-.4568 0l-9.0229 2.2973-10.0507-4.93919h-.1142-.1142-.4569l-9.593911 2.2973c-.228426 0-.34264.11486-.571066.34459-.114213.11487-.228423.3446-.228423.57433v21.70948c0 .1148-.00000174.3446.114211.4594.114214.1149.11421.2298.228423.3446.114214.1149.34264.2298.571066.2298h.22843l9.25127-2.1825 9.9365 5.0541h.1143.1142.4568l9.3655-2.4122c.2284 0 .3427-.1148.5711-.3446.1142-.1148.2284-.3446.2284-.5743v-21.82432c0-.11487 0-.3446-.1142-.45946 0-.11487 0-.22973-.1142-.3446zm-29.69546.57433 8.90866-2.2973v21.24995l-8.90866 2.2973zm18.95936 23.66215-9.0228-4.5946v-21.02026l9.0228 4.5946zm9.9366-1.9527-8.6802 2.0676v-21.13516l8.6802-2.06757z" fill="#f17830"/></svg>