<svg viewBox="0 0 44.1 37" xmlns="http://www.w3.org/2000/svg"><g fill="#d2d2d2"><path d="m4.5 6.5h15.4v2h-15.4z"/><path d="m24.3 6.5h15.4v2h-15.4z"/><path d="m4.4 17.5h15.4v2h-15.4z"/><path d="m24.3 17.5h15.4v2h-15.4z"/><path d="m4.5 28.5h15.4v2h-15.4z"/><path d="m24.3 28.5h15.4v2h-15.4z"/><path d="m42 .1h-.3a2 2 0 0 0 -2 2.1v.5 31.6.5a2.09 2.09 0 0 0 2 2.1h.3a2.11 2.11 0 0 0 2.1-2.1v-32.7a2 2 0 0 0 -2.1-2zm-37.6 2.6v-.5a2.09 2.09 0 0 0 -2-2.1h-.3a2.11 2.11 0 0 0 -2.1 2.1v32.7a2.11 2.11 0 0 0 2.1 2.1h.3a2 2 0 0 0 2-2.1v-.5z"/><path d="m24.3 34.3v.5a2.09 2.09 0 0 1 -2 2.1h-.3a2.11 2.11 0 0 1 -2.1-2.1v-32.7a2.11 2.11 0 0 1 2.1-2.1h.3a2 2 0 0 1 2 2.1v.5z"/></g></svg>