<svg fill="none" height="32" viewBox="0 0 32 32" width="32" xmlns="http://www.w3.org/2000/svg"><path d="m28.707 19.293-2.707-2.707v-3.586c-.0031-2.4782-.925-4.86715-2.5874-6.70502-1.6624-1.83786-3.9472-2.99405-6.4126-3.24498v-2.05h-2v2.05c-2.4654.25093-4.7502 1.40712-6.41263 3.24498-1.66239 1.83787-2.58427 4.22682-2.58737 6.70502v3.586l-2.707 2.707c-.18755.1875-.29294.4418-.293.707v3c0 .2652.10536.5196.29289.7071.18754.1875.44189.2929.70711.2929h7v.777c-.0218 1.2686.4254 2.5007 1.2558 3.46.8304.9594 1.9856 1.5786 3.2442 1.739.6952.0689 1.3971-.0084 2.0606-.227s1.2739-.5737 1.7919-1.0424c.5181-.4687.9323-1.0406 1.216-1.6789.2837-.6384.4307-1.3291.4315-2.0277v-1h7c.2652 0 .5196-.1054.7071-.2929s.2929-.4419.2929-.7071v-3c-.0001-.2652-.1054-.5195-.293-.707zm-9.707 5.707c0 .7956-.3161 1.5587-.8787 2.1213s-1.3257.8787-2.1213.8787-1.5587-.3161-2.1213-.8787-.8787-1.3257-.8787-2.1213v-1h6zm8-3h-22v-1.586l2.707-2.707c.18755-.1875.29294-.4418.293-.707v-4c0-2.1217.84285-4.15656 2.3431-5.65685 1.5003-1.5003 3.5352-2.34315 5.6569-2.34315s4.1566.84285 5.6569 2.34315c1.5002 1.50029 2.3431 3.53515 2.3431 5.65685v4c.0001.2652.1054.5195.293.707l2.707 2.707z" fill="#164558"/><rect fill="#fff" height="11" rx="5.5" width="11" x="19" y="1"/><path d="m23.73 9.03 3.8775-3.8775-.77-.77-3.1075 3.1075-1.5675-1.5675-.77.77zm.77 2.97c-.7608 0-1.4758-.1445-2.145-.4334-.6692-.2886-1.2512-.6803-1.7462-1.1753-.495-.49505-.8868-1.07713-1.1754-1.7463-.2889-.66917-.4334-1.38417-.4334-2.145s.1445-1.47583.4334-2.145c.2886-.66917.6804-1.25125 1.1754-1.74625s1.077-.88697 1.7462-1.1759c.6692-.28857 1.3842-.43285 2.145-.43285s1.4758.14428 2.145.43285c.6692.28893 1.2513.6809 1.7463 1.1759s.8867 1.07708 1.1753 1.74625c.2889.66917.4334 1.38417.4334 2.145s-.1445 1.47583-.4334 2.145c-.2886.66917-.6803 1.25125-1.1753 1.7463-.495.495-1.0771.8867-1.7463 1.1753-.6692.2889-1.3842.4334-2.145.4334z" fill="#164558"/></svg>