<svg fill="none" height="24" viewBox="0 0 22 24" width="22" xmlns="http://www.w3.org/2000/svg"><g fill="#b6b6b6"><path d="m14.0818 20.168c.3288-.5551-.1491-1.168-.7942-1.168h-4.57548c-.6451 0-1.12292.6129-.79416 1.168.65294 1.1023 1.78932 1.832 3.08194 1.832 1.2926 0 2.429-.7297 3.0819-1.832z"/><path d="m18.7267 17h-15.46385c-.78954 0-1.4296-.6401-1.4296-1.4296 0-.3662.14055-.7185.39266-.9841l.95376-1.005c.35413-.3731.55086-.8683.54932-1.3828l-.00862-2.87011c-.01214-4.0438 3.26261-7.32839 7.30643-7.32839 4.0352 0 7.3064 3.27121 7.3064 7.30645v2.91555c0 .5004.1876.9826.5257 1.3515l.9292 1.0136c.2434.2656.3785.6127.3785.973 0 .7952-.6447 1.4399-1.4399 1.4399z"/></g></svg>