<svg viewBox="0 0 48.4 48.5" xmlns="http://www.w3.org/2000/svg"><g fill="#d2d2d2"><path d="m24.1 48.5a24.39 24.39 0 0 1 -21-12.1 1.48 1.48 0 0 1 0-1.3 1.15 1.15 0 0 1 1.1-.6h9.6a1.22 1.22 0 0 1 1.2 1.2 1.29 1.29 0 0 1 -1.2 1.2h-7.3a21.84 21.84 0 0 0 17.6 9 21.37 21.37 0 0 0 13-4.3 1.28 1.28 0 1 1 1.6 2 23.79 23.79 0 0 1 -14.6 4.9z"/><path d="m44 37a1.15 1.15 0 0 1 -1.1-.6l-4.6-8a1.25 1.25 0 1 1 2.2-1.2l3.5 6a20.94 20.94 0 0 0 1.9-8.9 21.83 21.83 0 0 0 -13-20 1.35 1.35 0 0 1 -.7-1.6 1.35 1.35 0 0 1 1.6-.7 24.3 24.3 0 0 1 14.6 22.2 23.16 23.16 0 0 1 -3.3 12.1 1.08 1.08 0 0 1 -1.1.7z"/><path d="m1.3 27.8a1.2 1.2 0 0 1 -1.2-1.1 20.9 20.9 0 0 1 -.1-2.5 24.22 24.22 0 0 1 24.2-24.2 1.25 1.25 0 0 1 1.1.6 1.27 1.27 0 0 1 0 1.2l-4.6 8a1.25 1.25 0 1 1 -2.2-1.2l3.5-6a21.7 21.7 0 0 0 -19.5 21.6 14.08 14.08 0 0 0 .1 2.1 1.24 1.24 0 0 1 -1.1 1.4c-.1.1-.1.1-.2.1z"/><path d="m31.1 24.2a7 7 0 0 1 -13.9.1 7 7 0 0 1 13.9-.1z"/></g></svg>