<svg fill="none" height="32" viewBox="0 0 32 32" width="32" xmlns="http://www.w3.org/2000/svg"><path d="m12.6667 8.66667v4.00003h-4.00001v-4.00003zm2-2h-8.00001v8.00003h8.00001zm-2 12.66663v4h-4.00001v-4zm2-2h-8.00001v8h8.00001zm8.6667-8.66663v4.00003h-4v-4.00003zm2-2h-8v8.00003h8zm-8 10.66663h2v2h-2zm2 2h2v2h-2zm2-2h2v2h-2zm-4 4h2v2h-2zm2 2h2v2h-2zm2-2h2v2h-2zm2-2h2v2h-2zm0 4h2v2h-2zm4.6666-13.99996c-.7333 0-1.3333-.6-1.3333-1.33333v-2.66667h-2.6667c-.7333 0-1.3333-.6-1.3333-1.33333 0-.73334.6-1.33334 1.3333-1.33334h4c.7334 0 1.3334.6 1.3334 1.33334v4c0 .73333-.6 1.33333-1.3334 1.33333zm1.3334 18.66666v-4c0-.7333-.6-1.3333-1.3334-1.3333-.7333 0-1.3333.6-1.3333 1.3333v2.6667h-2.6667c-.7333 0-1.3333.6-1.3333 1.3333s.6 1.3333 1.3333 1.3333h4c.7334 0 1.3334-.6 1.3334-1.3333zm-25.33338 1.3333h4c.73334 0 1.33333-.6 1.33333-1.3333s-.59999-1.3333-1.33333-1.3333h-2.66667v-2.6667c0-.7333-.6-1.3333-1.33333-1.3333s-1.33333.6-1.33333 1.3333v4c0 .7333.6 1.3333 1.33333 1.3333zm-1.33333-25.33329v4c0 .73333.6 1.33333 1.33333 1.33333s1.33333-.6 1.33333-1.33333v-2.66667h2.66667c.73334 0 1.33333-.6 1.33333-1.33333 0-.73334-.59999-1.33334-1.33333-1.33334h-4c-.73333 0-1.33333.6-1.33333 1.33334z" fill="#fff"/></svg>