<svg fill="none" height="26" viewBox="0 0 26 26" width="26" xmlns="http://www.w3.org/2000/svg"><path d="m19.3569 20.3334.7875-.7822c3.6435.119 3.6995-.0088 3.8596-.3833l1.001-2.4368.0744-.231-.0814-.2022c-.0428-.1067-.175-.4252-2.45-2.5943v-1.141c2.625-2.5288 2.569-2.65829 2.4194-3.02842l-.9966-2.46225c-.1496-.36925-.2065-.51362-3.8238-.41474l-.7875-.81376c.0813-1.19866.04-2.40249-.1233-3.59275l-.1015-.23012-2.6023-1.1375c-.3832-.175-.518-.238-2.975 2.43775l-1.1042-.01663c-2.52967-2.700245-2.64955-2.651245-3.02842-2.49812l-2.41938.97825c-.37887.15312-.51275.20737-.36575 3.88237l-.78137.77875c-3.64175-.119-3.69775.0105-3.85613.38325l-1.002746 2.43775-.07875.23363.082246.203c.04288.105.16975.42004 2.45 2.59174v1.1375c-2.624995 2.5288-2.568121 2.6583-2.41762 3.0293l.99575 2.4648c.15225.3772.2065.511 3.82287.4165l.7875.8182c-.08162 1.1968-.04146 2.3988.11988 3.5875l.1015.2318 2.61888 1.1445c.38062.1593.51274.2162 2.96274-2.45l1.1043.014c2.5331 2.7038 2.6626 2.6513 3.0327 2.5017l2.4141-.9757c.3815-.1513.5145-.2047.3614-3.8815zm-10.37575-5.7085c-.30532-.7979-.36818-1.6683-.1807-2.5018.18749-.8336.61698-1.5932 1.23455-2.18355.6176-.59036 1.3958-.98517 2.237-1.13491.8411-.14973 1.7078-.0477 2.4911.29328.7834.34098 1.4487.90568 1.9123 1.62338.4636.7176.7049 1.5562.6937 2.4105s-.2745 1.6863-.7568 2.3915-1.1621 1.2523-1.9541 1.5726c-1.0807.4226-2.2848.3999-3.3488-.0632-1.0639-.4631-1.90111-1.3289-2.32825-2.4078z" fill="#fff" fill-opacity=".8"/></svg>