<svg viewBox="0 0 50.45 50.4" xmlns="http://www.w3.org/2000/svg"><path d="m13.8.2a5.16 5.16 0 0 0 1.1.2 9.41 9.41 0 0 1 4.6 2.7c4.3 4.3 8.5 8.6 12.8 12.8l17.5 17.5a1.72 1.72 0 0 1 .6 1.5 1.43 1.43 0 0 1 -2.4.8l-.4-.4-25.1-25.1a2.19 2.19 0 0 1 -.3-.5l-.1.1c-.1.6-.2 1.2-.3 1.9a.76.76 0 0 0 .2.4 11.48 11.48 0 0 1 2.7 4.8 2.09 2.09 0 0 0 .4.6l24.7 24.7a1.58 1.58 0 0 1 .6 1.6 1.27 1.27 0 0 1 -1 1.1 1.36 1.36 0 0 1 -1.5-.3c-.7-.7-1.4-1.4-2.1-2l-20.4-20.4-.3-.3c-.3 1.1-.7 2.2-1 3.4a1.06 1.06 0 0 0 .2.5c2.6 2.7 5.3 5.3 8 8l14 14a1.48 1.48 0 0 1 -.5 2.6h-36.2a1.53 1.53 0 0 1 -1.7-1.7v-10a.87.87 0 0 0 -.5-.9 9.21 9.21 0 0 1 -4.2-8.6 1.42 1.42 0 0 0 -.2-.6 11.86 11.86 0 0 1 -2.9-6.9c0-.1-.1-.2-.1-.3v-1.9c0-.1.1-.3.1-.4a12.4 12.4 0 0 1 3.1-7.1.61.61 0 0 0 .1-.6 9.32 9.32 0 0 1 5.5-10.6c.9-.4 1.9-.5 2.8-.8a9.81 9.81 0 0 0 2.2.2zm-1 36.3a6.38 6.38 0 0 0 6.3-7.5 1.54 1.54 0 0 1 .5-1.6 9.57 9.57 0 0 0 -.3-13.7 1.71 1.71 0 0 1 -.5-2 5.81 5.81 0 0 0 .1-3.9 6.42 6.42 0 0 0 -8.1-4.3 6.56 6.56 0 0 0 -4.2 8.1 1.86 1.86 0 0 1 -.6 2.2 9.57 9.57 0 0 0 -.3 13.4 2 2 0 0 1 .6 1.9 6.6 6.6 0 0 0 6.5 7.4zm29.2 11.1c-6.4-6.4-12.8-12.9-19.3-19.3-.2.4-.5.7-.5 1.1a20.9 20.9 0 0 0 -.1 2.5 1.07 1.07 0 0 0 .2.6c5 5 10 10 14.9 15a.76.76 0 0 0 .5.2c1.4-.1 2.8-.1 4.3-.1zm-9 0-12.3-12.3c-.7.8-1.5 1.6-2.3 2.5.1.1.3.2.4.3 2.8 2.8 5.6 5.5 8.4 8.4a3.07 3.07 0 0 0 2.8 1.2 15.06 15.06 0 0 1 3-.1zm-21.9-8.2v8.1h3.3v-8.1zm6.4 1.6v6.6h6.6c-2.3-2.2-4.4-4.4-6.6-6.6z" fill="#d2d2d2"/></svg>