<svg viewBox="0 0 45.05 50.03" xmlns="http://www.w3.org/2000/svg"><path d="m28 24.9a1.16 1.16 0 0 0 1.2 1.2h9.2a1.16 1.16 0 0 0 1.2-1.2 1.16 1.16 0 0 0 -1.2-1.2h-9.2a1.22 1.22 0 0 0 -1.2 1.2zm-.4-6.3a1.16 1.16 0 0 0 1.2 1.2h14.7a1.16 1.16 0 0 0 1.2-1.2 1.16 1.16 0 0 0 -1.2-1.2h-14.66a1.22 1.22 0 0 0 -1.2 1.2zm0-6.4a1.16 1.16 0 0 0 1.2 1.2h9.2a1.16 1.16 0 0 0 1.2-1.2 1.16 1.16 0 0 0 -1.2-1.2h-9.2a1.22 1.22 0 0 0 -1.16 1.2z" fill="#164558"/><path d="m44 3.6h-24.66l-.1-.1a8.77 8.77 0 0 0 -2.9-2.5 8.57 8.57 0 0 0 -4.1-1 8.42 8.42 0 0 0 -2.7.4 8.18 8.18 0 0 0 -4.2 3.1 8.75 8.75 0 0 0 -1.6 5v20.6l-.2.2a12.41 12.41 0 0 0 -3.3 6.3 12 12 0 0 0 5.2 12.4 12.26 12.26 0 0 0 13.5 0 11.86 11.86 0 0 0 4.5-5.4 12 12 0 0 0 .7-7 12.82 12.82 0 0 0 -3.3-6.3l-.2-.2v-20.6a11 11 0 0 0 -.2-1.8l-.1-.7h23.5a1.16 1.16 0 0 0 1.16-1.2v-.3c.14-.5-.36-.9-1-.9zm-22.16 31.9a9.63 9.63 0 0 1 -.4 5.8 10.19 10.19 0 0 1 -3.6 4.6 9.76 9.76 0 0 1 -5.5 1.8 10.23 10.23 0 0 1 -5.6-1.7 9.69 9.69 0 0 1 -3.6-4.6 10.47 10.47 0 0 1 -.4-5.8 9.94 9.94 0 0 1 3-5l.4-.4v-21.7a5.82 5.82 0 0 1 1.8-4.3 6.22 6.22 0 0 1 4.3-1.8 6.15 6.15 0 0 1 6.1 6.1v21.7l.4.4a8 8 0 0 1 3.1 4.9z" fill="#164558"/><path d="m16.14 37.8a3.76 3.76 0 0 1 -3.7 3.7 3.69 3.69 0 0 1 -3.7-3.7 3.75 3.75 0 0 1 2.7-3.6v-22.3a1 1 0 0 1 1-1 1.14 1.14 0 0 1 .8.3 1 1 0 0 1 .2.7v22.3a3.78 3.78 0 0 1 2.7 3.6z" fill="#ef7832"/></svg>