<svg fill="none" height="56" viewBox="0 0 55 56" width="55" xmlns="http://www.w3.org/2000/svg" xmlns:xlink="http://www.w3.org/1999/xlink"><filter id="a" color-interpolation-filters="sRGB" filterUnits="userSpaceOnUse" height="54.6166" width="54" x=".5" y=".5"><feFlood flood-opacity="0" result="BackgroundImageFix"/><feColorMatrix in="SourceAlpha" result="hardAlpha" type="matrix" values="0 0 0 0 0 0 0 0 0 0 0 0 0 0 0 0 0 0 127 0"/><feOffset dy="4"/><feGaussianBlur stdDeviation="2"/><feComposite in2="hardAlpha" operator="out"/><feColorMatrix type="matrix" values="0 0 0 0 0 0 0 0 0 0 0 0 0 0 0 0 0 0 0.25 0"/><feBlend in2="BackgroundImageFix" mode="normal" result="effect1_dropShadow_20_1723"/><feBlend in="SourceGraphic" in2="effect1_dropShadow_20_1723" mode="normal" result="shape"/></filter><clipPath id="b"><path d="m15 6h29v29h-29z"/></clipPath><g filter="url(#a)" opacity=".91"><path clip-rule="evenodd" d="m5 6c0-2.76142 2.23858-5 5-5h35c2.7614 0 5 2.23858 5 5v27.2331c0 2.7614-2.2386 5-5 5h-2.0561c-1.2311 4.727-5.2974 8.3834-5.2974 8.3834s-4.0664-3.6564-5.2975-8.3834h-22.349c-2.76142 0-5-2.2386-5-5z" fill="#f17830" fill-rule="evenodd"/><g fill="#fff"><path d="m42.9439 38.2331v-.5c-.2276 0-.4265.1537-.4838.374zm-5.2974 8.3834-.3344.3718c.1901.171.4786.171.6687 0zm-5.2975-8.3834.4839-.126c-.0574-.2203-.2563-.374-.4839-.374zm-22.349-37.7331c-3.03757 0-5.5 2.46244-5.5 5.5h1c0-2.48528 2.01472-4.5 4.5-4.5zm35 0h-35v1h35zm5.5 5.5c0-3.03757-2.4624-5.5-5.5-5.5v1c2.4853 0 4.5 2.01472 4.5 4.5zm0 27.2331v-27.2331h-1v27.2331zm-5.5 5.5c3.0376 0 5.5-2.4625 5.5-5.5h-1c0 2.4852-2.0147 4.5-4.5 4.5zm-2.0561 0h2.0561v-1h-2.0561zm-5.2974 7.8834c.3343.3718.3344.3717.3345.3716.0001 0 .0002-.0001.0003-.0003.0003-.0002.0006-.0005.0009-.0008.0008-.0006.0017-.0015.003-.0026.0024-.0023.0058-.0054.0102-.0093.0087-.008.0212-.0195.0372-.0344.0322-.0298.0786-.0734.1375-.1301.1179-.1133.2863-.2793.4914-.4928.4101-.4266.9688-1.0446 1.5667-1.8134 1.1913-1.5317 2.56-3.6896 3.1996-6.1453l-.9677-.252c-.5916 2.2713-1.8716 4.3052-3.0213 5.7834-.5725.7362-1.1074 1.3278-1.4982 1.7344-.1953.2032-.3543.3598-.4635.4649-.0547.0525-.0968.0921-.1249.1181-.014.013-.0245.0227-.0313.0288-.0033.0031-.0058.0053-.0072.0067-.0008.0006-.0013.0011-.0015.0013-.0002.0001-.0002.0002-.0002.0002.0001-.0001.0001-.0002.3345.3716zm-5.7814-8.2574c.6396 2.4557 2.0083 4.6136 3.1996 6.1453.5979.7688 1.1566 1.3868 1.5667 1.8134.2051.2135.3735.3795.4914.4928.059.0567.1053.1003.1375.1301.016.0149.0285.0264.0372.0344.0044.0039.0078.007.0102.0093.0013.0011.0022.002.003.0026.0004.0003.0007.0006.0009.0008.0001.0002.0003.0003.0003.0003.0001.0001.0002.0002.3346-.3716.3343-.3718.3343-.3717.3344-.3716s0-.0001-.0001-.0002c-.0003-.0002-.0008-.0007-.0015-.0013-.0015-.0014-.004-.0036-.0073-.0067-.0068-.0061-.0173-.0158-.0313-.0288-.028-.026-.0702-.0656-.1248-.1181-.1093-.1051-.2683-.2617-.4636-.4649-.3908-.4066-.9256-.9982-1.4982-1.7344-1.1497-1.4782-2.4297-3.5121-3.0212-5.7834zm-21.8651.374h22.349v-1h-22.349zm-5.5-5.5c0 3.0375 2.46243 5.5 5.5 5.5v-1c-2.48528 0-4.5-2.0147-4.5-4.5zm0-27.2331v27.2331h1v-27.2331z"/><g clip-path="url(#b)"><path d="m30.4989 12.5627h6.9839v1.9966h-6.9839zm0 3.4695h9.9805v1.9966h-9.9805zm.221 3.4531h6.9839v1.9967h-6.9839zm-7.2049 5.1798v-13.1498h-1.9978v13.1498c-.6632.2373-1.2281.6955-1.5802 1.3092-.352.6138-.4912 1.3257-.3684 2.0212s.4831 1.3256 1.0234 1.7839c.5404.4582 1.22.7037 1.9323.7037.7041 0 1.3919-.2537 1.9322-.7037.5404-.4583.9006-1.0884 1.0235-1.7839.1228-.6955-.0082-1.4074-.3685-2.0212-.3684-.6137-.9333-1.0719-1.5965-1.3092z"/><path d="m43.4678 8.52854h-16.989c-.6222-.83465-1.4983-1.45655-2.4971-1.7675-.9989-.31094-2.0633-.30276-3.054.02455-.9906.32732-1.8503.96558-2.4644 1.8166-.614.85101-.9415 1.87391-.9334 2.91311v11.0796c-.9661.9819-1.6129 2.2257-1.8749 3.5759-.262 1.3501-.1146 2.7494.4176 4.0177.5322 1.2684 1.4246 2.3485 2.5708 3.1095 1.1463.761 2.489 1.1702 3.8645 1.1702s2.7183-.4092 3.8645-1.1702c1.1463-.761 2.0387-1.8411 2.5709-3.1095.5322-1.2683.6795-2.6676.4175-4.0177-.262-1.3502-.9088-2.594-1.8749-3.5759v-11.0796c0-.3355-.0327-.671-.0982-.9983h16.0638v-1.98846zm-20.9517 23.93486c-1.007 0-1.9977-.3028-2.8328-.8756-.8352-.5728-1.4738-1.3829-1.834-2.3239-.3603-.9411-.4258-1.9721-.1884-2.954.2375-.982.7697-1.8657 1.5229-2.5367l.3275-.2946v-11.9633c0-.7938.3193-1.55476.8761-2.11938.5567-.56462 1.3263-.87556 2.1205-.87556s1.5556.31913 2.1206.87556c.5649.55643.876 1.32558.876 2.11938v11.9469l.3275.2946c.7533.671 1.2855 1.5548 1.5229 2.5367s.1719 2.013-.1883 2.954c-.3603.941-.9989 1.7511-1.834 2.3239-.8187.5892-1.8094.892-2.8165.892z"/></g></g></g></svg>