<svg fill="none" height="14" viewBox="0 0 14 14" width="14" xmlns="http://www.w3.org/2000/svg"><path d="m7.58335 7.10204 1.3125 1.3125c.10695.10695.16042.24072.16042.40134 0 .16022-.05347.29866-.16042.41533-.11666.11667-.25511.175-.41533.175-.16061 0-.29925-.05833-.41592-.175l-1.23958-1.23958c-.13611-.13612-.23819-.28681-.30625-.45209s-.10208-.34514-.10208-.53958v-1.75c0-.16528.056-.30392.168-.41592.11161-.11161.25005-.16741.41533-.16741s.30392.0558.41592.16741c.11161.112.16741.25064.16741.41592zm-.58333-4.76875c.16528 0 .30392.05581.41592.16742.11161.112.16741.25064.16741.41592 0 .16527-.0558.30391-.16741.41591-.112.11161-.25064.16742-.41592.16742s-.30372-.05581-.41533-.16742c-.112-.112-.168-.25064-.168-.41591 0-.16528.056-.30392.168-.41592.11161-.11161.25005-.16742.41533-.16742zm4.66668 4.66667c0 .16528-.056.30372-.168.41533-.1116.112-.2501.168-.4153.168-.1653 0-.3038-.056-.4154-.168-.112-.11161-.168-.25005-.168-.41533s.056-.30392.168-.41592c.1116-.11161.2501-.16741.4154-.16741.1652 0 .3037.0558.4153.16741.112.112.168.25064.168.41592zm-4.66668 3.50004c.16528 0 .30392.056.41592.168.11161.1116.16741.25.16741.4153s-.0558.3037-.16741.4153c-.112.112-.25064.168-.41592.168s-.30372-.056-.41533-.168c-.112-.1116-.168-.25-.168-.4153s.056-.3037.168-.4153c.11161-.112.25005-.168.41533-.168zm-3.5-3.50004c0 .16528-.05581.30372-.16742.41533-.112.112-.25064.168-.41591.168-.16528 0-.30392-.056-.41592-.168-.11161-.11161-.16742-.25005-.16742-.41533s.05581-.30392.16742-.41592c.112-.11161.25064-.16741.41592-.16741.16527 0 .30391.0558.41591.16741.11161.112.16742.25064.16742.41592zm3.5 5.83334c-.80694 0-1.56528-.1532-2.275-.4597-.70972-.306-1.32708-.7216-1.85208-1.2466s-.94053-1.14232-1.24659-1.85204c-.30644-.70972-.45966-1.46806-.45966-2.275 0-.80695.15322-1.56528.45966-2.275.30606-.70972.72159-1.32708 1.24659-1.85208s1.14236-.94073 1.85208-1.24717c.70972-.30606 1.46806-.45908 2.275-.45908s1.56528.15302 2.275.45908c.70972.30644 1.32708.72217 1.85208 1.24717s.9405 1.14236 1.2466 1.85208c.3064.70972.4597 1.46805.4597 2.275 0 .80694-.1533 1.56528-.4597 2.275-.3061.70972-.7216 1.32704-1.2466 1.85204s-1.14236.9406-1.85208 1.2466c-.70972.3065-1.46806.4597-2.275.4597zm0-1.1667c1.30278 0 2.40625-.4521 3.31038-1.3562.9042-.90419 1.3563-2.00766 1.3563-3.31044s-.4521-2.40625-1.3563-3.31042c-.90413-.90416-2.0076-1.35625-3.31038-1.35625s-2.40625.45209-3.31042 1.35625c-.90416.90417-1.35625 2.00764-1.35625 3.31042s.45209 2.40625 1.35625 3.31044c.90417.9041 2.00764 1.3562 3.31042 1.3562z" fill="#8e8e8e"/></svg>