<svg fill="none" height="17" viewBox="0 0 16 17" width="16" xmlns="http://www.w3.org/2000/svg"><path d="m8.66658 8.15057 1.50002 1.5c.1222.12222.1833.27511.1833.45863 0 .1831-.0611.3414-.1833.4747-.1333.1333-.29157.2-.47468.2-.18356 0-.342-.0667-.47534-.2l-1.41666-1.41667c-.15556-.15555-.27222-.32778-.35-.51666-.07778-.18889-.11667-.39445-.11667-.61667v-2c0-.18889.064-.34733.192-.47533.12756-.12756.28578-.19134.47467-.19134s.34733.06378.47533.19134c.12756.128.19133.28644.19133.47533zm-.66666-5.45c.18889 0 .34733.06377.47533.19133.12756.128.19133.28644.19133.47533s-.06377.34734-.19133.47534c-.128.12755-.28644.19133-.47533.19133s-.34711-.06378-.47467-.19133c-.128-.128-.192-.28645-.192-.47534s.064-.34733.192-.47533c.12756-.12756.28578-.19133.47467-.19133zm5.33338 5.33333c0 .18889-.064.34711-.192.47467-.1276.128-.2858.192-.4747.192s-.3471-.064-.4747-.192c-.128-.12756-.192-.28578-.192-.47467s.064-.34733.192-.47533c.1276-.12756.2858-.19134.4747-.19134s.3471.06378.4747.19134c.128.128.192.28644.192.47533zm-5.33338 4c.18889 0 .34733.064.47533.192.12756.1276.19133.2858.19133.4747s-.06377.3471-.19133.4746c-.128.128-.28644.192-.47533.192s-.34711-.064-.47467-.192c-.128-.1275-.192-.2857-.192-.4746s.064-.3471.192-.4747c.12756-.128.28578-.192.47467-.192zm-4-4c0 .18889-.06378.34711-.19134.47467-.128.128-.28644.192-.47533.192s-.34733-.064-.47533-.192c-.12756-.12756-.19133-.28578-.19133-.47467s.06377-.34733.19133-.47533c.128-.12756.28644-.19134.47533-.19134s.34733.06378.47533.19134c.12756.128.19134.28644.19134.47533zm4 6.6667c-.92222 0-1.78889-.1751-2.6-.5254-.81111-.3497-1.51667-.8246-2.11667-1.4246s-1.07489-1.3056-1.42466-2.1167c-.35023-.81111-.52534-1.67778-.52534-2.6s.17511-1.78889.52534-2.6c.34977-.81111.82466-1.51667 1.42466-2.11667s1.30556-1.07511 2.11667-1.42533c.81111-.34978 1.67778-.52467 2.6-.52467s1.78889.17489 2.59998.52467c.8111.35022 1.5167.82533 2.1167 1.42533s1.0749 1.30556 1.4247 2.11667c.3502.81111.5253 1.67778.5253 2.6s-.1751 1.78889-.5253 2.6c-.3498.8111-.8247 1.5167-1.4247 2.1167s-1.3056 1.0749-2.1167 1.4246c-.81109.3503-1.67776.5254-2.59998.5254zm0-1.3334c1.48889 0 2.74998-.5166 3.78338-1.55 1.0333-1.0333 1.55-2.29441 1.55-3.7833s-.5167-2.75-1.55-3.78333c-1.0334-1.03334-2.29449-1.55-3.78338-1.55s-2.75.51666-3.78334 1.55c-1.03333 1.03333-1.54999 2.29444-1.54999 3.78333s.51666 2.75 1.54999 3.7833c1.03334 1.0334 2.29445 1.55 3.78334 1.55z" fill="#164558"/></svg>