<svg fill="none" height="32" viewBox="0 0 32 32" width="32" xmlns="http://www.w3.org/2000/svg"><path d="m26 16.586v-2.586h-2v3c.0001.2652.1054.5195.293.707l2.707 2.707v1.586h-22v-1.586l2.707-2.707c.18755-.1875.29294-.4418.293-.707v-4c-.00279-1.4052.3653-2.7863 1.06709-4.00368.70178-1.21742 1.71241-2.22809 2.92981-2.92991 1.2174-.70183 2.5984-1.06997 4.0036-1.06723 1.4053.00274 2.7848.37625 3.9995 1.08282v-2.235c-.9519-.42148-1.9644-.69012-3-.796v-2.051h-2v2.05c-2.4654.25093-4.7502 1.40712-6.41263 3.24498-1.66239 1.83787-2.58427 4.22682-2.58737 6.70502v3.586l-2.707 2.707c-.18755.1875-.29294.4418-.293.707v3c0 .2652.10536.5196.29289.7071.18754.1875.44189.2929.70711.2929h7v1c0 1.3261.5268 2.5979 1.4645 3.5355.9376.9377 2.2094 1.4645 3.5355 1.4645s2.5979-.5268 3.5355-1.4645c.9377-.9376 1.4645-2.2094 1.4645-3.5355v-1h7c.2652 0 .5196-.1054.7071-.2929s.2929-.4419.2929-.7071v-3c-.0001-.2652-.1054-.5195-.293-.707zm-7 8.414c0 .7956-.3161 1.5587-.8787 2.1213s-1.3257.8787-2.1213.8787-1.5587-.3161-2.1213-.8787-.8787-1.3257-.8787-2.1213v-1h6z" fill="#164558"/><path d="m26 12c2.2091 0 4-1.7909 4-4 0-2.20914-1.7909-4-4-4s-4 1.79086-4 4c0 2.2091 1.7909 4 4 4z" fill="#34c759"/></svg>