<svg fill="none" height="56" viewBox="0 0 55 56" width="55" xmlns="http://www.w3.org/2000/svg" xmlns:xlink="http://www.w3.org/1999/xlink"><filter id="a" color-interpolation-filters="sRGB" filterUnits="userSpaceOnUse" height="54.6165" width="54" x=".5" y=".5"><feFlood flood-opacity="0" result="BackgroundImageFix"/><feColorMatrix in="SourceAlpha" result="hardAlpha" type="matrix" values="0 0 0 0 0 0 0 0 0 0 0 0 0 0 0 0 0 0 127 0"/><feOffset dy="4"/><feGaussianBlur stdDeviation="2"/><feComposite in2="hardAlpha" operator="out"/><feColorMatrix type="matrix" values="0 0 0 0 0 0 0 0 0 0 0 0 0 0 0 0 0 0 0.25 0"/><feBlend in2="BackgroundImageFix" mode="normal" result="effect1_dropShadow_19_3684"/><feBlend in="SourceGraphic" in2="effect1_dropShadow_19_3684" mode="normal" result="shape"/></filter><clipPath id="b"><path d="m0 0h32.88v27.96h-32.88z"/></clipPath><g filter="url(#a)" opacity=".91"><path clip-rule="evenodd" d="m5 6c0-2.76142 2.23858-5 5-5h35c2.7614 0 5 2.23858 5 5v27.2331c0 2.7614-2.2386 5-5 5h-14.0561c-1.2311 4.727-5.2974 8.3834-5.2974 8.3834s-4.0664-3.6564-5.2975-8.3834h-10.349c-2.76142 0-5-2.2386-5-5z" fill="#f17830" fill-rule="evenodd"/><path d="m30.9439 38.2331v-.5c-.2276 0-.4265.1537-.4838.374zm-5.2974 8.3834-.3344.3718c.1901.171.4786.171.6687 0zm-5.2975-8.3834.4839-.126c-.0574-.2203-.2563-.374-.4839-.374zm-10.349-37.7331c-3.03757 0-5.5 2.46244-5.5 5.5h1c0-2.48528 2.01472-4.5 4.5-4.5zm35 0h-35v1h35zm5.5 5.5c0-3.03757-2.4624-5.5-5.5-5.5v1c2.4853 0 4.5 2.01472 4.5 4.5zm0 27.2331v-27.2331h-1v27.2331zm-5.5 5.5c3.0376 0 5.5-2.4625 5.5-5.5h-1c0 2.4852-2.0147 4.5-4.5 4.5zm-14.0561 0h14.0561v-1h-14.0561zm-5.2974 7.8834c.3343.3718.3344.3717.3345.3716.0001 0 .0002-.0001.0003-.0003.0003-.0002.0006-.0005.0009-.0008.0008-.0006.0017-.0015.003-.0026.0024-.0023.0058-.0054.0102-.0093.0087-.008.0212-.0195.0372-.0344.0322-.0298.0786-.0734.1375-.1301.1179-.1133.2863-.2793.4914-.4928.4101-.4266.9688-1.0446 1.5667-1.8134 1.1913-1.5317 2.56-3.6896 3.1996-6.1453l-.9677-.252c-.5916 2.2713-1.8716 4.3052-3.0213 5.7834-.5725.7362-1.1074 1.3278-1.4982 1.7344-.1953.2032-.3543.3598-.4635.4649-.0547.0525-.0968.0921-.1249.1181-.014.013-.0245.0227-.0313.0288-.0033.0031-.0058.0053-.0072.0067-.0008.0006-.0013.0011-.0015.0013-.0002.0001-.0002.0002-.0002.0002.0001-.0001.0001-.0002.3345.3716zm-5.7814-8.2574c.6396 2.4557 2.0083 4.6136 3.1996 6.1453.5979.7688 1.1566 1.3868 1.5667 1.8134.2051.2135.3735.3795.4914.4928.059.0567.1053.1003.1375.1301.016.0149.0285.0264.0372.0344.0044.0039.0078.007.0102.0093.0013.0011.0022.002.003.0026.0003.0003.0007.0006.0009.0008.0001.0002.0003.0003.0003.0003.0001.0001.0002.0002.3346-.3716.3343-.3718.3343-.3717.3344-.3716s0-.0001-.0001-.0002c-.0003-.0002-.0008-.0007-.0015-.0013-.0015-.0014-.0039-.0036-.0073-.0067-.0068-.0061-.0173-.0158-.0313-.0288-.028-.026-.0702-.0656-.1248-.1181-.1093-.1051-.2683-.2617-.4636-.4649-.3908-.4066-.9256-.9982-1.4982-1.7344-1.1497-1.4782-2.4297-3.5121-3.0212-5.7834zm-9.8651.374h10.349v-1h-10.349zm-5.5-5.5c0 3.0375 2.46243 5.5 5.5 5.5v-1c-2.48528 0-4.5-2.0147-4.5-4.5zm0-27.2331v27.2331h1v-27.2331z" fill="#fff"/></g><g clip-path="url(#b)" fill="none" transform="translate(11.30861 5.678879)"><path d="m.43396 19.2451c.425322.0993 1.01556.0541 1.42353.4244.64232.578.90272.5148 1.33672.5961" stroke="#fff" stroke-linecap="round" stroke-miterlimit="10"/><path d="m23.7313 15.3256c.243 1.3727.8333 6.7101-2.8558 9.9883-3.0814 2.7364-9.4872 3.3415-12.86378-.6954" fill="#fff"/><g stroke="#fff" stroke-linecap="round" stroke-miterlimit="10"><path d="m23.7313 15.3256c.243 1.3727.8333 6.7101-2.8558 9.9883-3.0814 2.7364-9.4872 3.3415-12.86378-.6954"/><path d="m14.6432 1.20111c1.1024 1.0476 2.6214 2.60093 4.2011 4.69612 2.5086 3.32342 4.4963 6.67387 4.8869 9.42837"/><path d="m6.51001 12.6073c.75516-1.6888 1.79677-3.67565 3.23766-5.76181 1.67523-2.42031 3.41123-4.27167 4.88683-5.64438"/><path d="m.703125 13.7994c.225681.0542.607605.0813.998205.3161.89404.5418 1.04161.587 1.45825.6502.93744.1445 1.46693-.9392 2.49117-.9031 1.63185.0632 1.70997 1.0476 2.76893.8941.52081-.0723.89405-.5329 1.20653-.6593.47739-.1987.88539-.2438 1.15449-.298"/><path d="m.642334 21.9995c.225681.0542.607606.0813.998206.3161.89404.5419 1.0416.587 1.45825.6502.93744.1445 1.46692-.9392 2.49117-.9031 1.63185.0632 1.70997 1.0476 2.76893.8941.52081-.0723.89405-.5328 1.20653-.6593.47738-.1986.88538-.2438 1.15448-.298"/><path d="m.703125 16.6171c.338525 0 .763845.1083 1.050285.298.28644.1445.67704.5599 1.40617.5509.20832 0 .868 0 1.42352-.4877.33853-.298.92877-.3612 1.16313-.3612"/><path d="m13.4454 20.2114c-.408.0632-.7812-.0903-1.1371-.3161-.3125-.1987-1.2066-1.0386-2.38704-.3342-.77252.4606-.868.6774-1.49297.6864-.42532.009-.41664.0632-1.31936-.4606-.47741-.2799-1.13709-.5147-1.40617-.5147"/><path d="m8.22864 17.466c.40796.0632.7812-.0904 1.13708-.3161.31249-.1987 1.20648-1.0386 2.38698-.3342.7726.4606.868.6774 1.493.6864.4253.009.4166.0632 1.3194-.4606.4774-.28 1.1371-.5148 1.4061-.5148"/></g></g></svg>