<svg viewBox="0 0 44.02 50.38" xmlns="http://www.w3.org/2000/svg"><g fill="#d2d2d2"><path d="m38.05 46.08a18.87 18.87 0 0 1 -12.2 4.3 6.15 6.15 0 0 1 -1.4-.1 16.53 16.53 0 0 1 -11.6-5.8 7.63 7.63 0 0 1 1.1-.8l26.8-15.9c0-.2-.1-.4-.1-.6-.8-4.1-3.4-9.6-8.5-16.3a71.57 71.57 0 0 0 -6.3-7.3 66.46 66.46 0 0 0 -7.7 9 67 67 0 0 0 -5.7 10.1 1.11 1.11 0 0 1 -1.2.9 1.27 1.27 0 0 1 -.6-.1 1.6 1.6 0 0 1 -.8-2 77.81 77.81 0 0 1 5.9-10.6 59.52 59.52 0 0 1 9-10.4l.2-.2a1.4 1.4 0 0 1 1.9.2 68.75 68.75 0 0 1 7.7 8.6 68.46 68.46 0 0 1 6.2 9.6 38.88 38.88 0 0 1 2.1 5.1 25.27 25.27 0 0 1 1 10.6 20.46 20.46 0 0 1 -2.8 8.3 15.93 15.93 0 0 1 -3 3.4z"/><path d="m5.15 28.78a7.91 7.91 0 0 1 -4.8-2.1 1 1 0 0 1 -.1-1.4 1 1 0 0 1 1.4-.1c1.6 1.3 2.9 1.8 4.1 1.6a3.48 3.48 0 0 0 1.5-.7 4.11 4.11 0 0 1 2.5-.9 5.27 5.27 0 0 1 3.2.9 3.72 3.72 0 0 0 2 .7 4.87 4.87 0 0 0 3.1-1.3 1 1 0 0 1 1.2 1.6 6.81 6.81 0 0 1 -4.4 1.7 7.55 7.55 0 0 1 -3-1 3 3 0 0 0 -2-.6 2.83 2.83 0 0 0 -1.6.6 4.94 4.94 0 0 1 -2.3 1z"/><path d="m5.55 34.48a7.91 7.91 0 0 1 -4.8-2.1 1 1 0 0 1 -.1-1.38 1 1 0 0 1 1.4-.1c1.6 1.3 2.9 1.8 4.1 1.6a3.48 3.48 0 0 0 1.5-.7 4.11 4.11 0 0 1 2.5-.9 5.27 5.27 0 0 1 3.2.9 3.72 3.72 0 0 0 2 .7 4.87 4.87 0 0 0 3.1-1.3 1 1 0 0 1 1.2 1.6 6.81 6.81 0 0 1 -4.4 1.7 7.55 7.55 0 0 1 -3-1 3 3 0 0 0 -2-.6 2.83 2.83 0 0 0 -1.6.6 4.94 4.94 0 0 1 -2.3 1z"/><path d="m5.55 40a7.91 7.91 0 0 1 -4.8-2.1 1 1 0 0 1 -.1-1.4 1 1 0 0 1 1.4-.1c1.6 1.3 2.9 1.8 4.1 1.6a3.48 3.48 0 0 0 1.5-.7 4.11 4.11 0 0 1 2.5-.9 5.27 5.27 0 0 1 3.2.9 3.72 3.72 0 0 0 2 .7 4.87 4.87 0 0 0 3.1-1.3 1 1 0 0 1 1.2 1.6 6.81 6.81 0 0 1 -4.4 1.7 7.55 7.55 0 0 1 -3-1 3 3 0 0 0 -2-.6 2.83 2.83 0 0 0 -1.6.6 4.94 4.94 0 0 1 -2.3 1z"/></g></svg>