<svg viewBox="0 0 48.5 46.5" xmlns="http://www.w3.org/2000/svg"><path d="m48.5 29.9a1.66 1.66 0 0 1 -.5 1.2 1.31 1.31 0 0 1 -1.2.3c-5.5-.7-8.7-2.4-10.4-3.6a18 18 0 0 1 -11 3.9h-.6a16.94 16.94 0 0 1 -10.8-4 17.85 17.85 0 0 1 -11.9 4h-.7a1.45 1.45 0 0 1 -1.4-1.5 1.66 1.66 0 0 1 .5-1.2 1 1 0 0 1 1-.3 16 16 0 0 0 11.5-4l1.1-1.1 1 1.2a14.51 14.51 0 0 0 9.7 4h.2a16.24 16.24 0 0 0 10.3-4l1.2-1.3 1.1 1.4s2.3 2.7 9.5 3.6a1.08 1.08 0 0 1 .8.2 1.56 1.56 0 0 1 .6 1.2z" fill="#164558"/><path d="m48.5 44.7a1.66 1.66 0 0 1 -.5 1.2 1.31 1.31 0 0 1 -1.2.3c-5.5-.7-8.7-2.4-10.4-3.6a18 18 0 0 1 -11 3.9h-.6a16.94 16.94 0 0 1 -10.8-4 17.85 17.85 0 0 1 -11.9 4h-.7a1.45 1.45 0 0 1 -1.4-1.5 1.66 1.66 0 0 1 .5-1.2 1 1 0 0 1 1-.3 16 16 0 0 0 11.5-4l1.1-1.1 1 1.2a14.51 14.51 0 0 0 9.7 4 15.61 15.61 0 0 0 10.5-4l1.2-1.3 1.1 1.4s2.3 2.7 9.5 3.6a.83.83 0 0 1 .8.2 1.56 1.56 0 0 1 .6 1.2z" fill="#164558"/><g fill="#ef7832"><path d="m17.2 8.9a.89.89 0 0 1 -.8.5h-.1a1.61 1.61 0 0 1 -1.1-.5l-2.6-2.8v11.1a1.31 1.31 0 0 1 -.3 1 1.61 1.61 0 0 1 -1.1.5 1.63 1.63 0 0 1 -1.6-1.5v-11l-2.5 2.6a1.41 1.41 0 0 1 -2.2 0 1.57 1.57 0 0 1 0-2.2l6.1-6.6 6.1 6.6a1.6 1.6 0 0 1 .1 2.3z"/><path d="m42.4 8.9a.89.89 0 0 1 -.8.5h-.1a1.61 1.61 0 0 1 -1.1-.5l-2.5-2.6v11a1.52 1.52 0 0 1 -1.4 1.5 1.63 1.63 0 0 1 -1.6-1.5v-11.1l-2.6 2.8a1.41 1.41 0 0 1 -2.2 0 1.57 1.57 0 0 1 0-2.2l6.1-6.6 6.1 6.6a1.38 1.38 0 0 1 .1 2.1z"/></g></svg>