<svg viewBox="0 0 48.02 39.46" xmlns="http://www.w3.org/2000/svg"><g fill="#164558"><path d="m47.5 12.65a1.85 1.85 0 0 1 -1.2.5 1.61 1.61 0 0 1 -1.3-.6 27.46 27.46 0 0 0 -7.6-5.8 28.76 28.76 0 0 0 -9.8-3.1c-1.2-.1-2.4-.2-3.6-.2a28.32 28.32 0 0 0 -12.5 2.9 26 26 0 0 0 -7.5 5.4l-.4.4-.5.5a1.62 1.62 0 0 1 -1.7.5 1.6 1.6 0 0 1 -1.3-1.15.1.1 0 0 0 -.1-.1v-.8a4.57 4.57 0 0 1 1.4-1.7l.3-.3a30.94 30.94 0 0 1 15.8-8.45c10.7-2 20.3.6 28.4 7.8.6.5 1.1 1.1 1.6 1.6a1.87 1.87 0 0 1 0 2.6z"/><path d="m41.1 19.25a1.54 1.54 0 0 1 -1 1.5 1.68 1.68 0 0 1 -1.9-.3c-.3-.3-.6-.5-.9-.8l-1.8-1.5a20 20 0 0 0 -11.6-3.9h-1.3a19.33 19.33 0 0 0 -12.2 5.5l-.2.2-.4.4a1.85 1.85 0 0 1 -2.5 0 1.75 1.75 0 0 1 0-2.5 25.09 25.09 0 0 1 4.8-3.8 23.51 23.51 0 0 1 13.1-3.3 23.16 23.16 0 0 1 12.8 4.8c.6.5 1.2 1.1 1.8 1.6l.6.6a1.93 1.93 0 0 1 .7 1.5z"/><path d="m33.6 27.05a1.64 1.64 0 0 1 -1 1.5 1.85 1.85 0 0 1 -1.9-.2c-.2-.2-.5-.3-.7-.5a15.34 15.34 0 0 0 -2.1-1.4 8.46 8.46 0 0 0 -4-1 9.68 9.68 0 0 0 -5.4 1.8c-.3.2-.6.5-1 .8-.1.1-.3.2-.4.4a1.75 1.75 0 0 1 -2.5-.1 1.68 1.68 0 0 1 .2-2.5 14.34 14.34 0 0 1 7.8-3.8 11.9 11.9 0 0 1 7.5 1.7 17.68 17.68 0 0 1 2.2 1.6c.2.2.4.3.6.5a1.47 1.47 0 0 1 .7 1.2z"/></g><path d="m26.8 36.35a3.23 3.23 0 0 1 -.8 2.1 3.46 3.46 0 0 1 -2.1 1 3.08 3.08 0 0 1 -3.1-2.9 3.23 3.23 0 0 1 .8-2.1 3.46 3.46 0 0 1 2.1-1 2.89 2.89 0 0 1 3.1 2.9z" fill="#ef7832"/></svg>